<svg width="39" height="37" viewBox="0 0 39 37" fill="none" xmlns="http://www.w3.org/2000/svg">
<path d="M29.8394 24.5703C29.8394 23.3124 28.8248 22.2449 27.514 22.2449H22.2098C21.9586 22.2449 21.7834 21.9832 21.8944 21.7535C22.8764 19.7153 24.4026 18.5109 24.5775 18.2444C25.0011 17.6001 25.2249 16.8545 25.2249 16.088C25.2249 15.2406 24.9448 14.403 24.4358 13.7284C23.9624 13.1034 22.9804 12.9884 22.409 13.6734L20.1277 16.3849C19.5244 17.1019 18.8259 17.6905 18.051 18.1348C15.8944 19.3771 14.8202 20.9684 14.2978 22.0873C14.1551 22.3972 13.8316 22.5975 13.4735 22.5975H12.6394C12.4074 21.6615 11.5665 20.963 10.5595 20.963H0.635742C0.47827 20.963 0.327247 21.0255 0.215898 21.1369C0.104548 21.2482 0.0419922 21.3993 0.0419922 21.5567L0.0419922 35.75C0.0419922 35.9075 0.104548 36.0585 0.215898 36.1699C0.327247 36.2812 0.47827 36.3438 0.635742 36.3438H10.5595C11.5663 36.3438 12.4071 35.6454 12.6394 34.7095H12.9705C13.5756 34.7092 14.1773 34.7999 14.7555 34.9785L17.9022 35.948C18.5939 36.1617 19.3124 36.2702 20.0374 36.2702H26.0312C26.9887 36.2702 27.8118 35.6147 27.9881 34.7102C28.0775 34.246 27.9926 33.7791 27.7674 33.3799C28.5286 33.0338 29.0617 32.2689 29.0617 31.3782C29.0617 30.8886 28.895 30.4405 28.623 30.0749C29.344 29.6785 29.8395 28.9196 29.8395 28.0389C29.8395 27.35 29.5326 26.7369 29.0551 26.3108C29.5675 25.8575 29.8394 25.2303 29.8394 24.5703ZM11.5211 34.1946C11.5211 34.7249 11.0897 35.1562 10.5595 35.1562H1.22949V22.1503H10.5595C11.0898 22.1503 11.5211 22.5818 11.5211 23.1119V34.1946ZM23.7755 25.7134C23.618 25.7134 23.467 25.776 23.3557 25.8873C23.2443 25.9987 23.1818 26.1497 23.1818 26.3072C23.1818 26.4647 23.2443 26.6157 23.3557 26.727C23.467 26.8384 23.618 26.9009 23.7755 26.9009H27.4539C28.0208 26.9009 28.5459 27.2885 28.6364 27.848C28.7521 28.5626 28.2036 29.1823 27.5139 29.1823H23.7755C23.618 29.1823 23.467 29.2449 23.3557 29.3562C23.2443 29.4676 23.1818 29.6186 23.1818 29.7761C23.1818 29.9336 23.2443 30.0846 23.3557 30.1959C23.467 30.3073 23.618 30.3698 23.7755 30.3698H26.8129C27.3151 30.3698 27.7802 30.7133 27.8604 31.2091C27.9628 31.8425 27.477 32.3917 26.8657 32.3917H23.7755C23.618 32.3917 23.467 32.4543 23.3557 32.5656C23.2443 32.677 23.1818 32.828 23.1818 32.9855C23.1818 33.1429 23.2443 33.294 23.3557 33.4053C23.467 33.5167 23.618 33.5792 23.7755 33.5792H26.0881C26.1985 33.5791 26.3076 33.6034 26.4075 33.6506C26.5074 33.6977 26.5955 33.7664 26.6656 33.8517C26.8111 34.0277 26.8668 34.253 26.8222 34.4844C26.7555 34.8256 26.4155 35.0827 26.0309 35.0827H20.0373C19.4335 35.0827 18.8331 34.9923 18.256 34.8146L15.1034 33.8433C14.4124 33.6304 13.6934 33.5221 12.9703 33.5221H12.7085V23.7849H13.4734C14.2932 23.7849 15.04 23.3136 15.3749 22.587C15.8237 21.6257 16.7552 20.2514 18.6425 19.1646C19.5378 18.6511 20.3429 17.9733 21.0361 17.1494L23.3189 14.4361C23.3661 14.3791 23.4468 14.3896 23.4882 14.4445C23.8474 14.9202 24.0373 15.4888 24.0373 16.0881C24.0373 16.7929 23.701 17.4427 23.2155 17.9412C22.1524 19.0324 21.3697 20.1112 20.8314 21.2238C20.3373 22.245 21.0751 23.4325 22.2096 23.4325H27.5138C28.1535 23.4325 28.6517 23.955 28.6517 24.5704C28.6517 25.1909 28.1442 25.7135 27.5138 25.7135H23.7754V25.7134H23.7755ZM19.775 7.37843C19.8401 7.44173 19.8888 7.51991 19.9169 7.60623C19.945 7.69255 19.9517 7.78442 19.9364 7.87391L19.6885 9.3165C19.4443 10.7429 20.9438 11.8324 22.2246 11.1566L23.5165 10.4756C23.5969 10.4332 23.6864 10.4111 23.7773 10.4112C23.8682 10.4112 23.9577 10.4334 24.038 10.4759L25.3258 11.156C26.6034 11.8314 28.1056 10.7457 27.8631 9.31969L27.6178 7.87302V7.87272C27.6027 7.78355 27.6094 7.69203 27.6374 7.60603C27.6654 7.52003 27.7139 7.44213 27.7787 7.37902L28.821 6.36282C29.8568 5.35278 29.2845 3.5932 27.8538 3.38397L26.4086 3.1729C26.3189 3.15989 26.2337 3.12524 26.1604 3.07196C26.0871 3.01867 26.0278 2.94834 25.9878 2.86704L25.3421 1.55752C24.7006 0.257435 22.8502 0.261071 22.2105 1.55493L21.5602 2.86793C21.5201 2.949 21.4609 3.01911 21.3877 3.07224C21.3146 3.12536 21.2296 3.15991 21.1401 3.1729L19.6972 3.38338C18.2651 3.5926 17.6943 5.355 18.7318 6.36371L19.775 7.37843ZM19.8689 4.55871L21.3118 4.34793C21.5914 4.30715 21.857 4.19911 22.0857 4.03308C22.3143 3.86705 22.4993 3.648 22.6246 3.39474L23.2749 2.08173C23.4797 1.66729 24.072 1.66648 24.2771 2.08292L24.923 3.39244C25.0482 3.6463 25.2333 3.86594 25.4622 4.03243C25.6911 4.19893 25.9571 4.3073 26.2372 4.34822L27.6824 4.5593C28.1406 4.62588 28.3251 5.18771 27.992 5.51279L26.9498 6.52899C26.7476 6.7263 26.5962 6.9697 26.5087 7.23833C26.4212 7.50695 26.4002 7.79279 26.4474 8.07133L26.6927 9.5183C26.7707 9.97579 26.2903 10.3235 25.8807 10.1059L24.5929 9.42575C24.3417 9.29298 24.0619 9.22353 23.7779 9.22342C23.4938 9.22332 23.2139 9.29257 22.9627 9.42516L21.6711 10.1058C21.2597 10.3232 20.7812 9.9743 20.8591 9.51697L21.107 8.07438C21.1548 7.79494 21.1339 7.50806 21.0462 7.23849C20.9584 6.96892 20.8063 6.72475 20.6031 6.52706L19.5599 5.51212C19.2277 5.18987 19.4081 4.62573 19.8689 4.55871ZM37.6091 13.5249C38.4572 12.6981 37.9887 11.257 36.817 11.0861L35.769 10.9333C35.7301 10.9276 35.6931 10.9126 35.6614 10.8894C35.6296 10.8663 35.6039 10.8358 35.5866 10.8005L35.1184 9.8508C34.593 8.78636 33.0785 8.78933 32.5543 9.8488L32.0826 10.8012C32.0652 10.8363 32.0396 10.8666 32.0079 10.8896C31.9761 10.9126 31.9393 10.9275 31.9005 10.9331L30.8545 11.0859C29.6821 11.2567 29.214 12.6993 30.0636 13.5258L30.8201 14.2616C30.8483 14.2891 30.8695 14.323 30.8817 14.3605C30.8939 14.398 30.8969 14.4379 30.8902 14.4767L30.7107 15.523C30.5116 16.6869 31.7364 17.583 32.7869 17.0297L33.7239 16.5357C33.7587 16.5172 33.7976 16.5075 33.8371 16.5075C33.8766 16.5075 33.9155 16.5172 33.9503 16.5357L34.8838 17.0289C35.9301 17.5827 37.1599 16.6937 36.9614 15.5254L36.7833 14.4762C36.7769 14.4375 36.7799 14.3978 36.792 14.3605C36.8042 14.3232 36.8252 14.2894 36.8532 14.2619L37.6091 13.5249ZM36.7799 12.6748L36.0238 13.4121C35.8584 13.5737 35.7346 13.773 35.663 13.9929C35.5914 14.2128 35.5742 14.4467 35.6127 14.6747V14.675L35.7907 15.7243C35.8249 15.9238 35.6168 16.0723 35.4385 15.9787L34.5049 15.4856C34.2993 15.377 34.0702 15.3201 33.8376 15.32C33.6051 15.3199 33.376 15.3765 33.1702 15.485L32.2332 15.979C32.0537 16.0732 31.8473 15.922 31.8815 15.7235L32.0609 14.677C32.1 14.4482 32.0829 14.2134 32.011 13.9928C31.9391 13.7722 31.8146 13.5724 31.6483 13.4106L30.8916 12.6745C30.7461 12.5329 30.8273 12.2899 31.0258 12.2607L32.0721 12.1082C32.3009 12.0747 32.5183 11.9862 32.7055 11.8502C32.8927 11.7143 33.0441 11.535 33.1467 11.3277L33.6185 10.3753C33.7073 10.1958 33.9632 10.1935 34.053 10.3759L34.5213 11.3256C34.6238 11.5335 34.7754 11.7133 34.9628 11.8497C35.1503 11.9861 35.3681 12.0748 35.5975 12.1084L36.6455 12.2612C36.8457 12.2904 36.9246 12.5337 36.7799 12.6748Z" fill="white"/>
<path d="M10.6998 14.2614C10.7281 14.2888 10.7493 14.3228 10.7615 14.3602C10.7737 14.3977 10.7766 14.4376 10.77 14.4765L10.5905 15.5227C10.3902 16.6939 11.6206 17.5804 12.6666 17.0294L13.6036 16.5354C13.6385 16.5169 13.6774 16.5072 13.7169 16.5072C13.7563 16.5072 13.7952 16.5169 13.8301 16.5354L14.7636 17.0286C15.8097 17.5827 17.0397 16.6934 16.8411 15.5252L16.6631 14.4759C16.6567 14.4372 16.6596 14.3976 16.6718 14.3603C16.684 14.323 16.7049 14.2891 16.7329 14.2617L17.4887 13.5247C18.3368 12.6979 17.8683 11.2569 16.6966 11.086L15.6486 10.9332C15.6097 10.9275 15.5728 10.9125 15.541 10.8893C15.5092 10.8662 15.4836 10.8357 15.4662 10.8004L14.998 9.85069C14.4727 8.78625 12.9581 8.78922 12.434 9.84869L11.9622 10.8011C11.9449 10.8362 11.9192 10.8665 11.8875 10.8895C11.8558 10.9125 11.8189 10.9274 11.7802 10.933L10.7341 11.0858C9.56176 11.2566 9.09359 12.6992 9.94325 13.5257L10.6998 14.2614ZM10.9056 12.2608L11.9519 12.1083C12.1808 12.0748 12.3982 11.9863 12.5854 11.8504C12.7726 11.7145 12.924 11.5351 13.0266 11.3278L13.4983 10.3754C13.5872 10.196 13.8431 10.1936 13.9329 10.376L14.4011 11.3257C14.5037 11.5336 14.6552 11.7135 14.8427 11.8498C15.0301 11.9862 15.2479 12.0749 15.4773 12.1085L16.5253 12.2613C16.7253 12.2903 16.8043 12.5336 16.6595 12.6747L15.9035 13.412C15.738 13.5736 15.6142 13.7729 15.5426 13.9928C15.4711 14.2126 15.4538 14.4466 15.4924 14.6746V14.6749L15.6704 15.7241C15.7046 15.9242 15.4958 16.0719 15.3182 15.9786L14.3846 15.4855C14.179 15.3768 13.9499 15.32 13.7173 15.3199C13.4848 15.3198 13.2557 15.3764 13.0499 15.4849L12.1129 15.9789C11.9328 16.0732 11.727 15.9214 11.7612 15.7234L11.9406 14.6768C11.9797 14.4481 11.9625 14.2133 11.8907 13.9927C11.8188 13.7721 11.6943 13.5723 11.528 13.4104L10.7713 12.6744C10.6258 12.5329 10.7072 12.29 10.9056 12.2608Z" fill="white"/>
</svg>
