<svg width="39" height="39" viewBox="0 0 39 39" fill="none" xmlns="http://www.w3.org/2000/svg">
<path d="M17.142 22.4331C17.142 22.6011 17.2087 22.7622 17.3275 22.881C17.4463 22.9997 17.6074 23.0665 17.7753 23.0665C17.9433 23.0665 18.1044 22.9997 18.2232 22.881C18.3419 22.7622 18.4087 22.6011 18.4087 22.4331C18.4087 20.3381 16.4707 18.6065 13.9753 18.3519V17.6831C13.9753 17.5152 13.9086 17.3541 13.7898 17.2353C13.6711 17.1165 13.51 17.0498 13.342 17.0498C13.174 17.0498 13.0129 17.1165 12.8942 17.2353C12.7754 17.3541 12.7087 17.5152 12.7087 17.6831V18.3519C10.2133 18.6053 8.27533 20.3381 8.27533 22.4331C8.27533 24.5282 10.2133 26.2597 12.7087 26.5143V32.2067C10.9144 31.98 9.542 30.809 9.542 29.3998C9.542 29.2318 9.47527 29.0707 9.3565 28.952C9.23772 28.8332 9.07663 28.7665 8.90866 28.7665C8.74069 28.7665 8.5796 28.8332 8.46083 28.952C8.34206 29.0707 8.27533 29.2318 8.27533 29.3998C8.27533 31.4949 10.2133 33.2264 12.7087 33.481V34.1498C12.7087 34.3178 12.7754 34.4789 12.8942 34.5976C13.0129 34.7164 13.174 34.7831 13.342 34.7831C13.51 34.7831 13.6711 34.7164 13.7898 34.5976C13.9086 34.4789 13.9753 34.3178 13.9753 34.1498V33.481C16.4707 33.2277 18.4087 31.4949 18.4087 29.3998C18.4087 27.3047 16.4707 25.5732 13.9753 25.3186V19.6262C15.7696 19.8529 17.142 21.024 17.142 22.4331ZM9.542 22.4331C9.542 21.024 10.9144 19.8529 12.7087 19.6262V25.2401C10.9144 25.0133 9.542 23.8423 9.542 22.4331ZM17.142 29.3998C17.142 30.809 15.7696 31.98 13.9753 32.2067V26.5929C15.7696 26.8196 17.142 27.9906 17.142 29.3998Z" fill="white"/>
<path d="M2.32204 19.6927C2.16969 19.622 1.99549 19.6147 1.83776 19.6725C1.68003 19.7302 1.55169 19.8482 1.48097 20.0005C0.527754 22.052 0.0365466 24.2877 0.0420377 26.5498C0.0420377 34.5343 4.51654 38.5832 13.342 38.5832C15.1255 38.611 16.9045 38.4058 18.6348 37.9733C18.7971 37.9301 18.9357 37.8242 19.02 37.6789C19.1042 37.5336 19.1273 37.3607 19.0842 37.1984C19.041 37.036 18.9351 36.8975 18.7898 36.8132C18.6445 36.729 18.4716 36.7059 18.3093 36.749C16.6847 37.1503 15.0153 37.341 13.342 37.3165C5.24487 37.3165 1.3087 33.7945 1.3087 26.5498C1.29731 24.471 1.74882 22.4158 2.63047 20.5332C2.70094 20.3808 2.70803 20.2067 2.6502 20.0491C2.59236 19.8915 2.47433 19.7633 2.32204 19.6927ZM36.142 16.4165H22.2087C21.7048 16.4165 21.2215 16.6167 20.8652 16.973C20.5089 17.3293 20.3087 17.8126 20.3087 18.3165V36.6832C20.3087 37.1871 20.5089 37.6704 20.8652 38.0267C21.2215 38.383 21.7048 38.5832 22.2087 38.5832H36.142C36.646 38.5832 37.1292 38.383 37.4855 38.0267C37.8419 37.6704 38.042 37.1871 38.042 36.6832V18.3165C38.042 17.8126 37.8419 17.3293 37.4855 16.973C37.1292 16.6167 36.646 16.4165 36.142 16.4165ZM36.7754 36.6832C36.7754 36.8511 36.7086 37.0122 36.5899 37.131C36.4711 37.2498 36.31 37.3165 36.142 37.3165H22.2087C22.0407 37.3165 21.8796 37.2498 21.7609 37.131C21.6421 37.0122 21.5754 36.8511 21.5754 36.6832V18.3165C21.5754 18.1485 21.6421 17.9874 21.7609 17.8687C21.8796 17.7499 22.0407 17.6832 22.2087 17.6832H36.142C36.31 17.6832 36.4711 17.7499 36.5899 17.8687C36.7086 17.9874 36.7754 18.1485 36.7754 18.3165V36.6832Z" fill="white"/>
<path d="M24.742 24.6499H33.6087C33.9446 24.6499 34.2668 24.5164 34.5044 24.2789C34.7419 24.0413 34.8754 23.7191 34.8754 23.3832V20.8499C34.8754 20.5139 34.7419 20.1917 34.5044 19.9542C34.2668 19.7167 33.9446 19.5832 33.6087 19.5832H24.742C24.4061 19.5832 24.0839 19.7167 23.8463 19.9542C23.6088 20.1917 23.4754 20.5139 23.4754 20.8499V23.3832C23.4754 23.7191 23.6088 24.0413 23.8463 24.2789C24.0839 24.5164 24.4061 24.6499 24.742 24.6499ZM24.742 20.8499H33.6087V23.3832H24.742V20.8499ZM26.0087 26.5499H24.1087C23.9407 26.5499 23.7796 26.6166 23.6609 26.7354C23.5421 26.8541 23.4754 27.0152 23.4754 27.1832C23.4754 27.3512 23.5421 27.5123 23.6609 27.631C23.7796 27.7498 23.9407 27.8165 24.1087 27.8165H26.0087C26.1767 27.8165 26.3377 27.7498 26.4565 27.631C26.5753 27.5123 26.642 27.3512 26.642 27.1832C26.642 27.0152 26.5753 26.8541 26.4565 26.7354C26.3377 26.6166 26.1767 26.5499 26.0087 26.5499ZM26.0087 29.0832H24.1087C23.9407 29.0832 23.7796 29.1499 23.6609 29.2687C23.5421 29.3875 23.4754 29.5486 23.4754 29.7165C23.4754 29.8845 23.5421 30.0456 23.6609 30.1644C23.7796 30.2831 23.9407 30.3499 24.1087 30.3499H26.0087C26.1767 30.3499 26.3377 30.2831 26.4565 30.1644C26.5753 30.0456 26.642 29.8845 26.642 29.7165C26.642 29.5486 26.5753 29.3875 26.4565 29.2687C26.3377 29.1499 26.1767 29.0832 26.0087 29.0832ZM26.0087 31.6165H24.1087C23.9407 31.6165 23.7796 31.6833 23.6609 31.802C23.5421 31.9208 23.4754 32.0819 23.4754 32.2499C23.4754 32.4178 23.5421 32.5789 23.6609 32.6977C23.7796 32.8165 23.9407 32.8832 24.1087 32.8832H26.0087C26.1767 32.8832 26.3377 32.8165 26.4565 32.6977C26.5753 32.5789 26.642 32.4178 26.642 32.2499C26.642 32.0819 26.5753 31.9208 26.4565 31.802C26.3377 31.6833 26.1767 31.6165 26.0087 31.6165ZM26.0087 34.1499H24.1087C23.9407 34.1499 23.7796 34.2166 23.6609 34.3354C23.5421 34.4541 23.4754 34.6152 23.4754 34.7832C23.4754 34.9512 23.5421 35.1123 23.6609 35.231C23.7796 35.3498 23.9407 35.4165 24.1087 35.4165H26.0087C26.1767 35.4165 26.3377 35.3498 26.4565 35.231C26.5753 35.1123 26.642 34.9512 26.642 34.7832C26.642 34.6152 26.5753 34.4541 26.4565 34.3354C26.3377 34.2166 26.1767 34.1499 26.0087 34.1499ZM30.442 26.5499H28.542C28.374 26.5499 28.213 26.6166 28.0942 26.7354C27.9754 26.8541 27.9087 27.0152 27.9087 27.1832C27.9087 27.3512 27.9754 27.5123 28.0942 27.631C28.213 27.7498 28.374 27.8165 28.542 27.8165H30.442C30.61 27.8165 30.7711 27.7498 30.8899 27.631C31.0086 27.5123 31.0754 27.3512 31.0754 27.1832C31.0754 27.0152 31.0086 26.8541 30.8899 26.7354C30.7711 26.6166 30.61 26.5499 30.442 26.5499ZM30.442 29.0832H28.542C28.374 29.0832 28.213 29.1499 28.0942 29.2687C27.9754 29.3875 27.9087 29.5486 27.9087 29.7165C27.9087 29.8845 27.9754 30.0456 28.0942 30.1644C28.213 30.2831 28.374 30.3499 28.542 30.3499H30.442C30.61 30.3499 30.7711 30.2831 30.8899 30.1644C31.0086 30.0456 31.0754 29.8845 31.0754 29.7165C31.0754 29.5486 31.0086 29.3875 30.8899 29.2687C30.7711 29.1499 30.61 29.0832 30.442 29.0832ZM30.442 31.6165H28.542C28.374 31.6165 28.213 31.6833 28.0942 31.802C27.9754 31.9208 27.9087 32.0819 27.9087 32.2499C27.9087 32.4178 27.9754 32.5789 28.0942 32.6977C28.213 32.8165 28.374 32.8832 28.542 32.8832H30.442C30.61 32.8832 30.7711 32.8165 30.8899 32.6977C31.0086 32.5789 31.0754 32.4178 31.0754 32.2499C31.0754 32.0819 31.0086 31.9208 30.8899 31.802C30.7711 31.6833 30.61 31.6165 30.442 31.6165ZM30.442 34.1499H28.542C28.374 34.1499 28.213 34.2166 28.0942 34.3354C27.9754 34.4541 27.9087 34.6152 27.9087 34.7832C27.9087 34.9512 27.9754 35.1123 28.0942 35.231C28.213 35.3498 28.374 35.4165 28.542 35.4165H30.442C30.61 35.4165 30.7711 35.3498 30.8899 35.231C31.0086 35.1123 31.0754 34.9512 31.0754 34.7832C31.0754 34.6152 31.0086 34.4541 30.8899 34.3354C30.7711 34.2166 30.61 34.1499 30.442 34.1499ZM34.8754 26.5499H32.9754C32.8074 26.5499 32.6463 26.6166 32.5275 26.7354C32.4087 26.8541 32.342 27.0152 32.342 27.1832C32.342 27.3512 32.4087 27.5123 32.5275 27.631C32.6463 27.7498 32.8074 27.8165 32.9754 27.8165H34.8754C35.0433 27.8165 35.2044 27.7498 35.3232 27.631C35.442 27.5123 35.5087 27.3512 35.5087 27.1832C35.5087 27.0152 35.442 26.8541 35.3232 26.7354C35.2044 26.6166 35.0433 26.5499 34.8754 26.5499ZM34.8754 29.0832H32.9754C32.8074 29.0832 32.6463 29.1499 32.5275 29.2687C32.4087 29.3875 32.342 29.5486 32.342 29.7165C32.342 29.8845 32.4087 30.0456 32.5275 30.1644C32.6463 30.2831 32.8074 30.3499 32.9754 30.3499H34.8754C35.0433 30.3499 35.2044 30.2831 35.3232 30.1644C35.442 30.0456 35.5087 29.8845 35.5087 29.7165C35.5087 29.5486 35.442 29.3875 35.3232 29.2687C35.2044 29.1499 35.0433 29.0832 34.8754 29.0832ZM34.8754 31.6165H32.9754C32.8074 31.6165 32.6463 31.6833 32.5275 31.802C32.4087 31.9208 32.342 32.0819 32.342 32.2499C32.342 32.4178 32.4087 32.5789 32.5275 32.6977C32.6463 32.8165 32.8074 32.8832 32.9754 32.8832H34.8754C35.0433 32.8832 35.2044 32.8165 35.3232 32.6977C35.442 32.5789 35.5087 32.4178 35.5087 32.2499C35.5087 32.0819 35.442 31.9208 35.3232 31.802C35.2044 31.6833 35.0433 31.6165 34.8754 31.6165ZM34.8754 34.1499H32.9754C32.8074 34.1499 32.6463 34.2166 32.5275 34.3354C32.4087 34.4541 32.342 34.6152 32.342 34.7832C32.342 34.9512 32.4087 35.1123 32.5275 35.231C32.6463 35.3498 32.8074 35.4165 32.9754 35.4165H34.8754C35.0433 35.4165 35.2044 35.3498 35.3232 35.231C35.442 35.1123 35.5087 34.9512 35.5087 34.7832C35.5087 34.6152 35.442 34.4541 35.3232 34.3354C35.2044 34.2166 35.0433 34.1499 34.8754 34.1499ZM4.04785 1.3831C2.38029 2.9107 5.31008 7.6227 7.03655 10.0832H6.69202C6.40074 10.0821 6.11214 10.1388 5.84288 10.2499C5.57362 10.361 5.32904 10.5243 5.12325 10.7305C4.70902 11.1479 4.4762 11.7118 4.47535 12.2999C4.47669 12.6876 4.58005 13.0682 4.77504 13.4034C4.97003 13.7386 5.24979 14.0165 5.58622 14.2094C4.84695 14.9913 4.15053 15.8127 3.50002 16.6699C3.45012 16.7364 3.41381 16.8121 3.39317 16.8927C3.37253 16.9733 3.36796 17.0571 3.37972 17.1394C3.39148 17.2218 3.41934 17.301 3.46172 17.3725C3.50409 17.4441 3.56015 17.5066 3.62669 17.5565C3.69322 17.6064 3.76894 17.6427 3.8495 17.6634C3.93007 17.684 4.01392 17.6886 4.09625 17.6768C4.17859 17.6651 4.2578 17.6372 4.32936 17.5948C4.40093 17.5525 4.46345 17.4964 4.51335 17.4299C5.29564 16.4064 6.14177 15.4334 7.04669 14.5165H19.992C20.5799 14.5165 21.1437 14.283 21.5594 13.8673C21.9751 13.4516 22.2087 12.8878 22.2087 12.2999C22.2087 11.712 21.9751 11.1482 21.5594 10.7324C21.1437 10.3167 20.5799 10.0832 19.992 10.0832H19.6475C21.3733 7.6227 24.3031 2.91133 22.6368 1.3831C21.8705 0.681365 20.9775 1.1931 20.1903 1.64087C19.4744 2.13113 18.6408 2.42187 17.7754 2.4832C17.4355 2.48248 17.0996 2.41118 16.7887 2.27381C16.4779 2.13644 16.199 1.936 15.9697 1.6852C15.6266 1.33638 15.2175 1.05934 14.7663 0.870237C14.315 0.681131 13.8307 0.58374 13.3414 0.58374C12.8521 0.58374 12.3677 0.681131 11.9165 0.870237C11.4652 1.05934 11.0561 1.33638 10.7131 1.6852C10.4834 1.9364 10.204 2.13707 9.89258 2.27445C9.58119 2.41183 9.24461 2.48292 8.90425 2.4832C8.03922 2.42251 7.20613 2.13169 6.49125 1.64087C5.70465 1.19183 4.81229 0.681999 4.04785 1.3831ZM20.6653 11.6273C20.7985 11.7602 20.8893 11.9297 20.926 12.1142C20.9628 12.2988 20.9439 12.4901 20.8718 12.6639C20.7997 12.8378 20.6776 12.9863 20.5209 13.0906C20.3643 13.1949 20.1802 13.2503 19.992 13.2499H6.69202C6.44006 13.2499 6.19843 13.1498 6.02027 12.9716C5.84211 12.7935 5.74202 12.5518 5.74202 12.2999C5.74202 12.0479 5.84211 11.8063 6.02027 11.6281C6.19843 11.45 6.44006 11.3499 6.69202 11.3499H19.992C20.2441 11.3499 20.486 11.4499 20.6653 11.6273ZM8.90425 3.74987C9.39371 3.7498 9.87826 3.65226 10.3296 3.46295C10.781 3.27364 11.1901 2.99634 11.5332 2.64723C11.762 2.39594 12.0407 2.19518 12.3515 2.0578C12.6623 1.92043 12.9984 1.84947 13.3382 1.84947C13.678 1.84947 14.0141 1.92043 14.3249 2.0578C14.6358 2.19518 14.9145 2.39594 15.1432 2.64723C15.4867 2.99661 15.8964 3.27405 16.3484 3.46336C16.8003 3.65268 17.2854 3.75008 17.7754 3.74987C18.8628 3.69273 19.9148 3.34403 20.8211 2.74033C21.1105 2.5364 21.4373 2.392 21.7831 2.31663C22.4329 2.91197 20.7153 6.50233 18.0895 10.0832H16.5087V6.91653C16.5087 6.74856 16.442 6.58747 16.3232 6.4687C16.2044 6.34993 16.0433 6.2832 15.8754 6.2832C15.7074 6.2832 15.5463 6.34993 15.4275 6.4687C15.3087 6.58747 15.242 6.74856 15.242 6.91653V10.0832H11.442V6.91653C11.442 6.74856 11.3753 6.58747 11.2565 6.4687C11.1377 6.34993 10.9767 6.2832 10.8087 6.2832C10.6407 6.2832 10.4796 6.34993 10.3609 6.4687C10.2421 6.58747 10.1754 6.74856 10.1754 6.91653V10.0832H8.59709C5.97129 6.50233 4.25369 2.91197 4.91235 2.30713C5.25095 2.39757 5.57204 2.54399 5.86235 2.74033C6.76724 3.34395 7.81802 3.69268 8.90425 3.74987Z" fill="white"/>
</svg>
