<svg width="39" height="39" viewBox="0 0 39 39" fill="none" xmlns="http://www.w3.org/2000/svg">
<path d="M25.1947 25.1989V23.8689L26.1388 24.4923C26.2939 24.5947 26.4958 24.5903 26.6457 24.4812C26.7956 24.3721 26.8624 24.1813 26.8134 24.0025L26.4765 22.7846L27.4651 21.9971C27.6105 21.8813 27.6684 21.6876 27.6113 21.511C27.5541 21.3343 27.3931 21.2119 27.2075 21.2037L25.9451 21.1473L25.5012 19.9642C25.4693 19.8794 25.4123 19.8063 25.3378 19.7548C25.2632 19.7032 25.1748 19.6756 25.0841 19.6756C24.9935 19.6756 24.905 19.7032 24.8305 19.7548C24.756 19.8063 24.699 19.8794 24.667 19.9642L24.2232 21.1473L24.1661 21.1495C23.7846 20.817 23.317 20.5676 22.7789 20.4066C23.2472 19.9754 23.5411 19.3579 23.5411 18.6728C23.5411 17.3733 22.4835 16.3164 21.1847 16.3164C19.8859 16.3164 18.8282 17.374 18.8282 18.6728C18.8282 19.3571 19.1214 19.9731 19.5882 20.4044C17.9339 20.8957 17.1754 22.1596 17.1754 23.4147V25.1989C17.1754 25.4446 17.375 25.6442 17.6207 25.6442H24.7487C24.8072 25.6443 24.8652 25.6329 24.9193 25.6105C24.9734 25.5882 25.0226 25.5554 25.064 25.514C25.1055 25.4727 25.1383 25.4235 25.1608 25.3695C25.1832 25.3154 25.1947 25.2574 25.1947 25.1989ZM24.9543 21.7351L25.0841 21.3885L25.214 21.7351C25.2447 21.8168 25.2986 21.8877 25.3692 21.9391C25.4398 21.9904 25.5239 22.0199 25.6111 22.0238L25.9807 22.0401L25.6912 22.271C25.623 22.3254 25.5723 22.3986 25.5454 22.4816C25.5185 22.5646 25.5165 22.6537 25.5398 22.7378L25.6386 23.0948L25.3298 22.8907C25.2556 22.8417 25.1695 22.8172 25.0841 22.8172C24.9988 22.8172 24.9134 22.8417 24.8385 22.8907L24.5297 23.0948L24.6284 22.7385C24.6759 22.5663 24.6166 22.383 24.477 22.2717L24.1876 22.0409L24.5572 22.0246C24.6444 22.0203 24.7284 21.9906 24.799 21.9392C24.8696 21.8878 24.9235 21.8168 24.9543 21.7351ZM21.1854 17.207C21.9937 17.207 22.6513 17.8646 22.6513 18.6728C22.6513 19.4811 21.9937 20.1387 21.1854 20.1387C20.3772 20.1387 19.7196 19.4811 19.7196 18.6728C19.7196 17.8646 20.3772 17.207 21.1854 17.207ZM18.0668 24.7536V23.4147C18.0668 21.9971 19.2906 21.0812 21.1854 21.0812C21.7502 21.0812 22.2549 21.1606 22.6884 21.3143C22.629 21.3662 22.583 21.4323 22.5577 21.511C22.5006 21.6876 22.5585 21.8813 22.7039 21.9971L23.6925 22.7846L23.3556 24.0025C23.3059 24.1813 23.3727 24.3721 23.5233 24.4812C23.6012 24.5376 23.6933 24.5665 23.7853 24.5665C23.8707 24.5665 23.956 24.542 24.031 24.4931L24.3056 24.312V24.7543H18.0668V24.7536ZM36.9265 34.1148C36.9012 33.4691 36.6296 32.8939 36.1613 32.4946L29.9091 27.1575C30.4398 26.3419 30.8517 25.4423 31.1189 24.4819C32.0889 22.3994 32.581 20.1698 32.581 17.8549C32.581 9.19065 25.5324 2.14209 16.8681 2.14209C8.20383 2.14209 1.15527 9.19065 1.15527 17.8549C1.15527 26.5192 8.20383 33.5678 16.8681 33.5678C20.2414 33.5678 23.4558 32.5154 26.1648 30.5233C26.4735 30.3667 26.7726 30.1931 27.0606 30.0053L32.3977 36.2575C32.797 36.7258 33.3729 36.9974 34.0179 37.0227C34.0513 37.0242 34.0839 37.0249 34.1173 37.0249C34.8395 37.0249 35.5727 36.7191 36.0975 36.1944C36.6467 35.6459 36.9562 34.8688 36.9265 34.1148ZM30.3685 17.4096C29.2025 15.1875 27.1971 13.4723 24.7769 12.6863C24.6047 11.7475 24.3887 10.8546 24.1334 10.0152C25.6571 9.59588 27.0532 9.04518 28.254 8.37646C30.3091 10.8413 31.5813 13.9807 31.6829 17.4096H30.3685ZM31.6837 18.3003C31.6592 19.136 31.5664 19.959 31.4053 20.7658C31.3052 19.9049 31.0914 19.0773 30.7797 18.3003H31.6837ZM23.8209 12.4296C23.1678 12.29 22.4902 12.2158 21.7955 12.2158C20.179 12.2158 18.6546 12.6151 17.3142 13.3187V10.9519C19.3879 10.9207 21.4088 10.6743 23.268 10.2371C23.4825 10.9363 23.668 11.671 23.8209 12.4296ZM17.3134 10.0605V3.05943C18.6998 3.22494 20.0291 4.1601 21.1832 5.79068C21.8831 6.78002 22.4939 8.00537 22.986 9.38881C21.2166 9.79775 19.2921 10.0301 17.3134 10.0605ZM16.4228 3.06018V10.0605C14.4427 10.0301 12.5159 9.79775 10.7458 9.38807C11.0145 8.63475 11.3195 7.92373 11.6617 7.26467C12.9687 4.74494 14.6453 3.2717 16.4228 3.06018ZM16.4228 10.9511V13.8479C15.0809 14.7467 13.9758 15.972 13.2218 17.4096H9.39504C9.43363 14.8439 9.80324 12.391 10.4645 10.2349C12.3245 10.6728 14.3477 10.9199 16.4228 10.9511ZM8.50441 17.4096H2.05332C2.155 13.9807 3.42637 10.8413 5.48223 8.37646C6.68309 9.04443 8.0784 9.59588 9.60211 10.0152C8.92227 12.2462 8.54301 14.7734 8.50441 17.4096ZM8.50441 18.3003C8.54301 20.935 8.92152 23.4607 9.60062 25.6917C8.07395 26.1118 6.68457 26.664 5.48223 27.3342C3.42637 24.8694 2.155 21.7292 2.05332 18.301H8.50441V18.3003ZM9.39504 18.3003H12.8098C12.3645 19.4113 12.1181 20.6233 12.1181 21.8917C12.1181 22.9998 12.3059 24.0641 12.6503 25.0564C11.9156 25.1632 11.1859 25.3014 10.463 25.4705C9.80324 23.316 9.43363 20.8645 9.39504 18.3003ZM12.9932 25.9084C13.7435 27.5464 14.9384 28.941 16.4228 29.9355V32.6497C14.6453 32.4382 12.9687 30.9649 11.6617 28.446C11.3195 27.7862 11.013 27.0744 10.7451 26.3203C11.4672 26.1526 12.2183 26.0153 12.9932 25.9084ZM17.3134 30.4654C18.1157 30.8863 18.9841 31.1987 19.8985 31.3806C19.0806 32.1094 18.2026 32.5406 17.3134 32.649V30.4654ZM13.0095 21.8917C13.0095 17.0474 16.9505 13.1057 21.7955 13.1057C26.6405 13.1057 30.5815 17.0467 30.5815 21.8917C30.5815 26.7367 26.6405 30.6777 21.7955 30.6777C16.9505 30.6777 13.0095 26.736 13.0095 21.8917ZM27.6484 7.69291C26.5359 8.29186 25.2541 8.78764 23.8573 9.16912C22.9555 6.60041 21.6723 4.60318 20.1753 3.40455C23.0832 4.07029 25.6682 5.59326 27.6484 7.69291ZM13.5387 3.40975C12.5479 4.20686 11.6431 5.36615 10.8713 6.85424C10.4987 7.57193 10.1677 8.34752 9.87894 9.16912C8.48215 8.78764 7.20039 8.29186 6.08859 7.69291C8.06355 5.59846 10.6397 4.07771 13.5387 3.40975ZM6.08859 28.017C7.20113 27.4173 8.47769 26.92 9.8782 26.5385C10.1669 27.3609 10.4987 28.1372 10.872 28.8556C11.6439 30.343 12.5486 31.503 13.5394 32.3001C10.6397 31.6322 8.06355 30.1114 6.08859 28.017ZM20.1842 32.3061C20.4685 32.079 20.7453 31.8222 21.0147 31.5357C21.2723 31.5565 21.5328 31.5676 21.7955 31.5676C22.0634 31.5676 22.3284 31.5565 22.5911 31.5349C21.8126 31.8615 21.008 32.119 20.1842 32.3061ZM29.3881 27.8834L30.6958 28.9996L28.9034 30.792L27.7872 29.4843C28.3809 29.0145 28.9183 28.4771 29.3881 27.8834ZM35.4688 35.565C35.0925 35.9413 34.5626 36.1543 34.0542 36.1335C33.7752 36.1224 33.3788 36.0348 33.076 35.6801L29.4838 31.4719L31.3757 29.58L35.5839 33.1722C35.9386 33.475 36.0262 33.8713 36.0373 34.1504C36.0566 34.6603 35.8444 35.1887 35.4688 35.565ZM29.6738 21.8917C29.6738 17.5477 26.1395 14.0134 21.7955 14.0134C17.4515 14.0134 13.9172 17.5477 13.9172 21.8917C13.9172 26.2357 17.4515 29.77 21.7955 29.77C26.1395 29.77 29.6738 26.2357 29.6738 21.8917ZM14.8078 21.8917C14.8078 18.0383 17.9428 14.904 21.7955 14.904C25.6482 14.904 28.7832 18.039 28.7832 21.8917C28.7832 25.7444 25.6482 28.8794 21.7955 28.8794C17.9421 28.8794 14.8078 25.7444 14.8078 21.8917Z" fill="white"/>
</svg>
