<svg width="35" height="38" viewBox="0 0 35 38" fill="none" xmlns="http://www.w3.org/2000/svg">
<path d="M30.8096 17.0502C30.3758 16.7081 29.8062 16.6622 29.3232 16.9308L27.5642 17.9092C27.2523 18.0827 27.0538 18.386 27.0195 18.741C27.0161 18.7756 27.0158 18.8097 27.0156 18.8438L26.1624 19.3184C24.9725 19.9801 23.6974 20.0943 22.3722 19.6575C20.6984 19.1059 18.906 19.4145 17.0446 20.5749L16.9946 20.6061C15.4948 19.6557 14.1493 19.7722 12.8455 19.8853C11.4735 20.0043 10.0551 20.1273 8.19825 19.0828L7.80044 18.859C7.80108 18.8196 7.79962 18.7802 7.79606 18.741C7.76162 18.3858 7.56301 18.0826 7.25122 17.9091L5.49216 16.9307C5.0093 16.6623 4.43974 16.708 4.00586 17.0501C1.12476 19.3225 -0.478141 23.3611 0.194503 26.6529C0.284531 27.0929 0.573167 27.4459 0.986417 27.6214L2.3657 28.2071C2.49876 28.2642 2.64197 28.2938 2.78674 28.2942C2.98973 28.2942 3.19049 28.2347 3.36966 28.1175C3.42287 28.0819 3.47289 28.0418 3.51913 27.9976L6.78862 29.6831L7.75279 30.7207L7.70329 30.8064C7.44464 31.2545 7.37628 31.7779 7.51084 32.2803C7.64547 32.7827 7.96639 33.2018 8.41453 33.4605C8.70259 33.6275 9.02906 33.7169 9.362 33.7199C9.25246 34.0681 9.24392 34.4417 9.34107 34.8043C9.47571 35.3067 9.79663 35.7258 10.2448 35.9845C10.8657 36.343 11.6044 36.3188 12.1858 35.9851C12.3494 36.3727 12.6355 36.6961 13.0003 36.9056C13.4479 37.164 13.9714 37.2323 14.474 37.0975C14.6665 37.0462 14.85 36.9659 15.0183 36.8593C15.185 37.2256 15.4623 37.5304 15.8112 37.7309C16.1043 37.9007 16.4369 37.9902 16.7756 37.9903C16.9453 37.9903 17.1164 37.9679 17.285 37.9227C17.7877 37.7881 18.2069 37.4673 18.4654 37.0197L18.4771 36.9994L18.8529 37.2108C19.2831 37.4592 19.6884 37.5642 20.0529 37.5642C20.747 37.5642 21.2931 37.1833 21.5801 36.6861C21.7258 36.4322 21.8073 36.1466 21.8176 35.854C22.5635 35.9754 23.3417 35.6352 23.7415 34.9428C23.9417 34.5969 24.0252 34.1958 23.9797 33.7987C24.6463 33.7881 25.2917 33.4388 25.6486 32.8206C25.8697 32.4383 25.9544 31.9922 25.8888 31.5555C26.0373 31.5503 26.1864 31.5292 26.3337 31.4897C26.8402 31.354 27.2629 31.0304 27.5237 30.5786C27.705 30.2645 27.7927 29.901 27.7815 29.5376L31.2365 27.939C31.2974 28.0058 31.367 28.066 31.4459 28.1175C31.6249 28.2347 31.8255 28.2942 32.0286 28.2942C32.17 28.2942 32.3125 28.2653 32.4498 28.2071L33.829 27.6214C34.2422 27.4459 34.5309 27.0929 34.6209 26.6528C35.2936 23.3611 33.6908 19.3225 30.8096 17.0501V17.0502ZM2.80055 27.2481C2.78734 27.2567 2.78622 27.2569 2.77175 27.2507L1.39254 26.6649C1.29168 26.6221 1.23446 26.5521 1.21249 26.4448C0.614062 23.5166 2.0594 19.9086 4.64926 17.8659C4.7073 17.8201 4.77083 17.7971 4.8357 17.7971C4.88602 17.7971 4.93708 17.8109 4.98718 17.8388L6.74616 18.8171C6.75574 18.8225 6.75848 18.826 6.75848 18.826C6.75848 18.826 6.76071 18.8301 6.76175 18.8409C6.76286 18.8517 6.76145 18.856 6.76145 18.856C6.76145 18.856 6.75937 18.8601 6.75084 18.8672C4.20922 21.007 2.8479 23.8963 2.81428 27.2226C2.81413 27.2384 2.81361 27.2395 2.80047 27.248L2.80055 27.2481ZM8.93413 32.5606C8.72639 32.4407 8.57736 32.2457 8.51465 32.0114C8.45186 31.7771 8.48333 31.5336 8.60326 31.3259L9.6263 29.5539C9.74594 29.3466 9.94106 29.1979 10.1757 29.1349C10.4105 29.0719 10.6538 29.1033 10.861 29.2231C11.2926 29.4723 11.441 30.026 11.192 30.4577L10.1686 32.2301C9.91931 32.6617 9.36557 32.8098 8.93406 32.5606H8.93413ZM11.9992 34.7537C11.7498 35.1855 11.1958 35.3338 10.7643 35.0847C10.5566 34.9647 10.4075 34.7697 10.3448 34.5354C10.282 34.3011 10.3135 34.0576 10.4334 33.85L11.0494 32.7829L11.0675 32.7515L11.0687 32.7494L11.0689 32.749L12.0915 30.9777L12.0917 30.9774C12.2113 30.77 12.4065 30.6212 12.6411 30.5584C12.8761 30.4953 13.1192 30.5268 13.3264 30.6465C13.758 30.8956 13.9064 31.4494 13.6574 31.8811C13.6574 31.8811 13.6574 31.8812 13.6573 31.8813L13.657 31.8819L12.2197 34.3713L11.999 34.7537H11.9992ZM14.2052 36.094C13.9703 36.157 13.7271 36.1256 13.5199 36.0058C13.3121 35.8859 13.1631 35.6908 13.1004 35.4565C13.0376 35.2223 13.0691 34.9788 13.189 34.7711L14.5589 32.3984C14.6787 32.1924 14.8731 32.0445 15.1069 31.982C15.3414 31.9191 15.5849 31.9503 15.7922 32.07C16.2235 32.3191 16.3721 32.8726 16.1235 33.3042L16.123 33.3049L16.1227 33.3057L14.9695 35.303L14.7547 35.6751C14.635 35.8824 14.4398 36.0312 14.2052 36.0941V36.094ZM17.5656 36.5003C17.4459 36.7076 17.2508 36.8563 17.0162 36.9193C16.7814 36.9823 16.5381 36.9509 16.3308 36.8311C16.1231 36.7112 15.9741 36.5161 15.9114 36.2818C15.8486 36.0476 15.88 35.8041 16 35.5964L16.0001 35.5961L17.0234 33.8237C17.2728 33.3926 17.8263 33.2445 18.2577 33.4936C18.4655 33.6135 18.6145 33.8086 18.6772 34.0429C18.7401 34.2772 18.7085 34.5207 18.5886 34.7284L17.5656 36.5003ZM26.6239 30.0592C26.5019 30.2706 26.3034 30.4223 26.0649 30.4862C25.8264 30.5501 25.5787 30.5181 25.3672 30.3959L24.9328 30.1451L24.9317 30.1445C24.9315 30.1444 24.9313 30.1443 24.9311 30.1442L23.8568 29.5239C23.7375 29.4561 23.5963 29.4382 23.4639 29.4742C23.3315 29.5101 23.2187 29.597 23.1501 29.7158C23.0815 29.8346 23.0627 29.9757 23.0977 30.1083C23.1328 30.241 23.2189 30.3544 23.3372 30.4237L24.4127 31.0447C24.8516 31.2984 25.0024 31.8619 24.7489 32.3011C24.4953 32.7405 23.9314 32.8913 23.4921 32.6379L23.0592 32.3879L23.0565 32.3863L22.5559 32.0973C22.4969 32.0632 22.4316 32.041 22.364 32.0321C22.2964 32.0232 22.2276 32.0277 22.1617 32.0453C22.0958 32.063 22.034 32.0935 21.9799 32.135C21.9258 32.1765 21.8804 32.2283 21.8463 32.2874C21.8121 32.3465 21.79 32.4117 21.7811 32.4794C21.7721 32.547 21.7766 32.6158 21.7943 32.6817C21.812 32.7476 21.8424 32.8094 21.884 32.8635C21.9255 32.9176 21.9773 32.963 22.0364 32.9971L22.537 33.2862C22.9345 33.5157 23.0712 34.0259 22.8417 34.4233C22.6121 34.8208 22.102 34.9575 21.7047 34.7281L20.8931 34.2594C20.7737 34.1905 20.6319 34.1719 20.4988 34.2075C20.3657 34.2432 20.2523 34.3302 20.1834 34.4496C20.1145 34.5689 20.0958 34.7107 20.1314 34.8438C20.1671 34.9769 20.2541 35.0904 20.3735 35.1593L20.3758 35.1607C20.8315 35.4252 20.8533 35.8673 20.6804 36.1667C20.4921 36.493 20.0496 36.702 19.3675 36.3082L18.9969 36.0998L19.4886 35.248C20.0243 34.3201 19.7053 33.1294 18.7774 32.5937C18.2908 32.3128 17.7322 32.267 17.2336 32.4205C17.1173 31.9119 16.7982 31.4511 16.3118 31.1702C15.8642 30.9117 15.3408 30.8438 14.838 30.9783C14.8147 30.9846 14.7915 30.9913 14.7684 30.9983C14.6524 30.4892 14.3331 30.0278 13.8462 29.7467C13.3986 29.4884 12.8754 29.4204 12.3725 29.5549C12.3489 29.5612 12.3254 29.568 12.3022 29.575C12.2967 29.5511 12.2908 29.5273 12.2844 29.5036C12.1498 29.0011 11.8289 28.582 11.3808 28.3233C10.9331 28.0649 10.4097 27.9966 9.90699 28.1314C9.40431 28.2661 8.98505 28.5868 8.72662 29.0344L8.29667 29.7792L7.48828 28.9093C7.44736 28.8653 7.39912 28.8287 7.3457 28.8012L3.85876 27.0037C3.94463 24.1024 5.10081 21.67 7.29746 19.7682L7.68911 19.9885C9.8258 21.1902 11.4779 21.0469 12.9355 20.9205C14.0512 20.8237 14.9751 20.744 15.9897 21.2328L12.4194 23.4588C11.9637 23.7429 11.6948 24.1674 11.6621 24.654C11.6266 25.1823 11.8843 25.7421 12.3345 26.115C13.9066 27.4166 15.3572 26.7079 16.637 26.0826C17.4383 25.6912 18.267 25.2863 19.1775 25.2809H19.1964C20.1914 25.2809 20.9989 25.748 21.8534 26.2424L26.264 28.7889C26.5661 29.0103 26.6286 29.1498 26.7197 29.3849C26.7739 29.6151 26.7396 29.8595 26.6242 30.0592L26.6239 30.0592ZM26.8068 27.9025L22.3736 25.3429C21.4315 24.798 20.4593 24.2316 19.1713 24.2418C18.0236 24.2487 17.0445 24.7269 16.1807 25.149C14.8215 25.813 14.0034 26.1481 12.997 25.3146C12.8025 25.1535 12.6854 24.9215 12.6987 24.7236C12.7087 24.5729 12.7971 24.4476 12.9689 24.3406L17.5943 21.4567C19.204 20.4531 20.6605 20.1873 22.047 20.6444C23.6363 21.1681 25.2341 21.0237 26.6675 20.2264L27.5077 19.7591C29.6913 21.645 30.8502 24.0535 30.9547 26.9248L27.46 28.5416C27.3359 28.3514 27.1528 28.1483 26.8504 27.9307C26.8363 27.9206 26.8217 27.9111 26.8067 27.9025H26.8068ZM33.603 26.4448C33.581 26.5522 33.5238 26.6222 33.4229 26.665L32.0438 27.2507C32.0291 27.257 32.0283 27.2569 32.015 27.2482C32.0018 27.2396 32.0012 27.2386 32.0011 27.2229C31.9675 23.8965 30.6062 21.0072 28.0644 18.8673C28.0603 18.8642 28.0568 18.8604 28.054 18.8562C28.0536 18.8552 28.0528 18.8503 28.0537 18.841C28.0546 18.8317 28.0564 18.8271 28.0569 18.8262C28.0605 18.8225 28.0646 18.8195 28.0692 18.8173L29.8281 17.839C29.8783 17.8111 29.9294 17.7973 29.9797 17.7973C30.0445 17.7973 30.108 17.8204 30.1661 17.8661C32.756 19.9088 34.2013 23.5168 33.6029 26.4449L33.603 26.4448ZM12.5856 11.3491C13.2603 12.2902 13.8428 13.103 13.8428 14.3022V15.7628C13.8428 16.5811 14.4638 17.2566 15.2592 17.3441V17.9707C15.2592 18.7095 15.8603 19.3106 16.5991 19.3106H18.2162C18.955 19.3106 19.5561 18.7095 19.5561 17.9707V17.3441C20.3515 17.2566 20.9725 16.5811 20.9725 15.7628V14.3022C20.9725 13.1031 21.5551 12.2903 22.2297 11.3491C23.0678 10.1798 24.0178 8.85458 24.0178 6.55914C24.0178 4.70976 23.292 3.15414 21.9186 2.0606C20.7224 1.10807 19.1204 0.583496 17.4077 0.583496C15.695 0.583496 14.093 1.10807 12.8968 2.0606C11.5235 3.15414 10.7976 4.70976 10.7976 6.55914C10.7976 8.85458 11.7475 10.1798 12.5856 11.3491ZM18.2162 18.2715H16.5991C16.436 18.2715 16.2983 18.1339 16.2983 17.9707V17.3542H18.517V17.9707C18.517 18.1338 18.3794 18.2715 18.2162 18.2715ZM19.381 16.3152H15.4342C15.1296 16.3152 14.8819 16.0674 14.8819 15.7629V15.2318H19.9334V15.7629C19.9334 16.0675 19.6855 16.3152 19.381 16.3152ZM17.8823 14.1927H16.9329V10.3775C17.2485 10.4115 17.5668 10.4115 17.8823 10.3775V14.1927ZM17.4076 1.62256C20.0908 1.62256 22.9787 3.16735 22.9787 6.55922C22.9787 8.52075 22.1686 9.65087 21.3851 10.7439C20.6885 11.7156 19.9692 12.7199 19.935 14.1928H18.9213V10.2599C18.9213 10.2146 18.9215 10.1697 18.922 10.1253C19.8018 9.78321 20.5141 9.14092 20.9123 8.28711C21.3843 7.27506 21.3807 6.36825 20.9024 5.86119C20.5877 5.52773 20.1279 5.43659 19.6726 5.61753C18.9062 5.92205 18.0932 7.0547 17.9171 9.32261C17.7426 9.35096 17.571 9.36417 17.4076 9.36417C17.2443 9.36417 17.0726 9.35096 16.8981 9.32261C16.722 7.0547 15.909 5.92205 15.1426 5.61753C14.6872 5.43659 14.2273 5.52773 13.9129 5.86119C13.4346 6.36818 13.4309 7.27506 13.9029 8.28711C14.3011 9.14092 15.0135 9.78313 15.8932 10.1253C15.8937 10.1698 15.8939 10.2146 15.8939 10.2599V14.1928H14.8802C14.846 12.7199 14.1266 11.7156 13.4302 10.7438C12.6467 9.65088 11.8366 8.52075 11.8366 6.55922C11.8366 3.16742 14.7245 1.62256 17.4076 1.62256ZM19.0021 8.92836C19.1745 7.61379 19.5923 6.87969 19.9624 6.63373C20.0493 6.57592 20.1061 6.5659 20.1284 6.5659C20.1336 6.5659 20.1369 6.56649 20.1384 6.56709C20.1428 6.56894 20.1652 6.58898 20.1867 6.64576C20.2615 6.84273 20.244 7.262 19.9707 7.84788C19.7428 8.33668 19.3956 8.68781 19.0021 8.92836ZM15.813 8.92836C15.4195 8.68789 15.0725 8.33668 14.8445 7.8478C14.5712 7.26185 14.5537 6.84266 14.6284 6.64568C14.6499 6.58891 14.6724 6.56894 14.6767 6.56701C14.68 6.56606 14.6834 6.56566 14.6868 6.56582C14.7091 6.56582 14.7659 6.57584 14.8528 6.63366C15.2228 6.87962 15.6406 7.61379 15.813 8.92836ZM23.8941 2.683C23.8252 2.56367 23.8065 2.42187 23.8422 2.28878C23.8779 2.15569 23.9649 2.04221 24.0843 1.97332L25.2997 1.27165C25.4189 1.20384 25.5602 1.18596 25.6926 1.22191C25.825 1.25785 25.9378 1.34471 26.0064 1.46352C26.075 1.58233 26.0938 1.72345 26.0587 1.85608C26.0237 1.98872 25.9375 2.1021 25.8192 2.17148L24.6038 2.87314C24.5447 2.90729 24.4795 2.92946 24.4118 2.93838C24.3442 2.9473 24.2754 2.9428 24.2095 2.92513C24.1436 2.90747 24.0818 2.87698 24.0277 2.83542C23.9736 2.79386 23.9282 2.74211 23.8941 2.683ZM25.5109 6.25848H26.9143C27.0521 6.25848 27.1842 6.31322 27.2817 6.41065C27.3791 6.50808 27.4338 6.64023 27.4338 6.77802C27.4338 6.9158 27.3791 7.04795 27.2817 7.14538C27.1842 7.24281 27.0521 7.29755 26.9143 7.29755H25.5109C25.3731 7.29755 25.241 7.24281 25.1435 7.14538C25.0461 7.04795 24.9914 6.9158 24.9914 6.77802C24.9914 6.64023 25.0461 6.50808 25.1435 6.41065C25.241 6.31322 25.3731 6.25848 25.5109 6.25848ZM25.8192 11.3845C25.9385 11.4534 26.0256 11.5668 26.0613 11.6999C26.0969 11.833 26.0783 11.9749 26.0094 12.0942C25.9405 12.2135 25.827 12.3006 25.6939 12.3363C25.5608 12.3719 25.419 12.3533 25.2997 12.2844L24.0843 11.5826C23.9659 11.5133 23.8798 11.3999 23.8447 11.2672C23.8097 11.1346 23.8285 10.9935 23.8971 10.8747C23.9657 10.7559 24.0785 10.669 24.2109 10.6331C24.3433 10.5971 24.4845 10.615 24.6038 10.6828L25.8192 11.3846V11.3845ZM8.80588 1.46173C8.87479 1.34242 8.98827 1.25537 9.12135 1.21971C9.25443 1.18405 9.39623 1.20271 9.51556 1.27158L10.731 1.97324C10.8503 2.04214 10.9374 2.15561 10.973 2.28871C11.0087 2.42181 10.99 2.56362 10.9212 2.68296C10.8523 2.80229 10.7388 2.88937 10.6057 2.92504C10.4726 2.96071 10.3308 2.94204 10.2114 2.87314L8.99603 2.17148C8.87671 2.10258 8.78964 1.98911 8.75398 1.85602C8.71832 1.72293 8.73699 1.58105 8.80588 1.46173ZM7.38148 6.77794C7.38148 6.64015 7.43621 6.50801 7.53364 6.41058C7.63107 6.31315 7.76322 6.25841 7.90101 6.25841H9.30441C9.4422 6.25841 9.57434 6.31315 9.67177 6.41058C9.76921 6.50801 9.82394 6.64015 9.82394 6.77794C9.82394 6.91573 9.76921 7.04787 9.67177 7.14531C9.57434 7.24274 9.4422 7.29747 9.30441 7.29747H7.90101C7.76322 7.29747 7.63107 7.24274 7.53364 7.14531C7.43621 7.04787 7.38148 6.91573 7.38148 6.77794ZM10.9212 10.8729C10.9901 10.9922 11.0088 11.134 10.9731 11.2671C10.9374 11.4002 10.8504 11.5137 10.731 11.5826L9.51564 12.2843C9.45656 12.3185 9.39133 12.3406 9.32368 12.3495C9.25603 12.3585 9.18728 12.354 9.12137 12.3363C9.05546 12.3186 8.99368 12.2881 8.93956 12.2466C8.88543 12.205 8.84004 12.1532 8.80596 12.0941C8.73707 11.9748 8.7184 11.833 8.75406 11.6999C8.78971 11.5668 8.87678 11.4533 8.9961 11.3844L10.2115 10.6827C10.3308 10.6138 10.4726 10.5951 10.6057 10.6308C10.7388 10.6664 10.8523 10.7535 10.9212 10.8728V10.8729Z" fill="white"/>
</svg>
