<svg width="64" height="64" viewBox="0 0 64 64" fill="none" xmlns="http://www.w3.org/2000/svg">
<circle cx="32.3921" cy="32.3291" r="31.6079" fill="#19B168"/>
<path d="M21.2981 22.6221C21.2981 21.8562 21.919 21.2354 22.6848 21.2354H25.6702C26.3481 21.2354 26.9266 21.7254 27.0381 22.3941L28.0633 28.5454C28.1634 29.1459 27.8601 29.7414 27.3156 30.0137L25.1688 31.0871C26.7168 34.9338 29.7871 38.0041 33.6338 39.5521L34.7072 37.4053C34.9795 36.8607 35.575 36.5575 36.1755 36.6576L42.3268 37.6828C42.9955 37.7943 43.4856 38.3728 43.4856 39.0507V42.0361C43.4856 42.802 42.8647 43.4228 42.0989 43.4228H39.3254C29.3692 43.4228 21.2981 35.3517 21.2981 25.3955V22.6221Z" fill="white"/>
</svg>
