<svg width="341" height="468" viewBox="0 0 341 468" fill="none" xmlns="http://www.w3.org/2000/svg">
<rect x="0.584259" y="0.371582" width="340" height="466.697" rx="170" fill="#19B168"/>
<rect x="13.3595" y="17.7212" width="314.449" height="431.998" rx="157.225" stroke="white"/>
<line x1="27.4645" y1="233.22" x2="313.704" y2="233.22" stroke="white"/>
<path d="M108.139 112.768C105.515 112.768 103.227 112.32 101.275 111.424C99.3228 110.496 97.5468 109.104 95.9468 107.248L100.699 102.4C101.755 103.68 102.923 104.688 104.203 105.424C105.483 106.128 106.955 106.48 108.619 106.48C110.187 106.48 111.403 106.192 112.267 105.616C113.131 105.008 113.563 104.16 113.563 103.072C113.563 102.144 113.275 101.392 112.699 100.816C112.155 100.24 111.419 99.7437 110.491 99.3277C109.563 98.9117 108.539 98.5117 107.419 98.1277C106.299 97.7437 105.179 97.3117 104.059 96.8317C102.971 96.3197 101.963 95.6957 101.035 94.9597C100.107 94.1917 99.3548 93.2477 98.7788 92.1277C98.2028 90.9757 97.9148 89.5357 97.9148 87.8077C97.9148 85.7277 98.4108 83.9357 99.4028 82.4317C100.427 80.9277 101.819 79.7917 103.579 79.0237C105.339 78.2237 107.355 77.8237 109.627 77.8237C111.835 77.8237 113.899 78.2397 115.819 79.0717C117.739 79.9037 119.307 81.0397 120.523 82.4797L115.771 87.3277C114.779 86.2717 113.771 85.4717 112.747 84.9277C111.755 84.3517 110.667 84.0637 109.483 84.0637C108.107 84.0637 107.035 84.3197 106.267 84.8317C105.499 85.3437 105.115 86.0957 105.115 87.0877C105.115 87.9517 105.403 88.6557 105.979 89.1997C106.555 89.7117 107.307 90.1597 108.235 90.5437C109.195 90.9277 110.219 91.3117 111.307 91.6957C112.427 92.0797 113.547 92.5277 114.667 93.0397C115.787 93.5517 116.811 94.2077 117.739 95.0077C118.699 95.7757 119.467 96.7677 120.043 97.9837C120.619 99.1677 120.907 100.64 120.907 102.4C120.907 105.632 119.771 108.176 117.499 110.032C115.259 111.856 112.139 112.768 108.139 112.768ZM106.555 109.024H111.835V117.088H106.555V109.024ZM111.835 81.2797H106.555V73.5037H111.835V81.2797ZM124.293 108.016L137.301 94.5757C138.101 93.7757 138.741 93.0397 139.221 92.3677C139.701 91.6957 140.053 91.0717 140.277 90.4957C140.501 89.8877 140.613 89.2797 140.613 88.6717C140.613 87.3597 140.181 86.3357 139.317 85.5997C138.485 84.8317 137.381 84.4477 136.005 84.4477C134.661 84.4477 133.445 84.8157 132.357 85.5517C131.301 86.2557 130.277 87.4237 129.285 89.0557L124.245 84.6877C125.589 82.4157 127.301 80.7037 129.381 79.5517C131.461 78.3997 133.845 77.8237 136.533 77.8237C138.869 77.8237 140.885 78.2557 142.581 79.1197C144.309 79.9837 145.637 81.2157 146.565 82.8157C147.525 84.4157 148.005 86.2877 148.005 88.4317C148.005 89.7757 147.829 91.0237 147.477 92.1757C147.125 93.2957 146.549 94.4157 145.749 95.5357C144.981 96.6237 143.941 97.8237 142.629 99.1357L133.605 108.112L124.293 108.016ZM124.293 112.24V108.016L130.677 105.808H148.677V112.24H124.293ZM157.434 112.768C156.186 112.768 155.146 112.336 154.314 111.472C153.482 110.608 153.066 109.568 153.066 108.352C153.066 107.072 153.482 106.016 154.314 105.184C155.146 104.32 156.186 103.888 157.434 103.888C158.714 103.888 159.754 104.32 160.554 105.184C161.386 106.016 161.802 107.072 161.802 108.352C161.802 109.568 161.386 110.608 160.554 111.472C159.754 112.336 158.714 112.768 157.434 112.768ZM176.769 112.768C174.433 112.768 172.289 112.368 170.337 111.568C168.385 110.736 166.737 109.552 165.393 108.016L170.241 103.168C170.849 104.064 171.729 104.8 172.881 105.376C174.065 105.92 175.313 106.192 176.625 106.192C177.809 106.192 178.833 105.984 179.697 105.568C180.561 105.152 181.233 104.56 181.713 103.792C182.225 103.024 182.481 102.112 182.481 101.056C182.481 99.9997 182.225 99.1037 181.713 98.3677C181.233 97.5997 180.513 97.0077 179.553 96.5917C178.625 96.1757 177.505 95.9677 176.193 95.9677C175.585 95.9677 174.945 96.0157 174.273 96.1117C173.633 96.1757 173.089 96.2877 172.641 96.4477L175.953 92.2717C176.849 92.0157 177.697 91.8077 178.497 91.6477C179.329 91.4557 180.097 91.3597 180.801 91.3597C182.529 91.3597 184.081 91.7757 185.457 92.6077C186.833 93.4077 187.921 94.5597 188.721 96.0637C189.553 97.5357 189.969 99.2957 189.969 101.344C189.969 103.584 189.409 105.568 188.289 107.296C187.201 109.024 185.665 110.368 183.681 111.328C181.729 112.288 179.425 112.768 176.769 112.768ZM172.641 96.4477V92.2717L180.897 82.5757L189.345 82.5277L180.753 92.3197L172.641 96.4477ZM167.505 84.7357V78.3517H189.345V82.5277L183.441 84.7357H167.505ZM203.842 112.24V78.3517H209.218L222.562 99.1357H219.826L233.122 78.3517H238.546V112.24H231.01V91.0717L232.354 91.4077L223.666 104.944H218.674L210.034 91.4077L211.33 91.0717V112.24H203.842Z" fill="#FFF219"/>
<path d="M59.1404 156.986L64.7724 151.046C65.3444 150.459 65.7917 149.953 66.1144 149.528C66.437 149.088 66.6644 148.684 66.7964 148.318C66.943 147.951 67.0164 147.57 67.0164 147.174C67.0164 146.396 66.767 145.788 66.2684 145.348C65.7697 144.908 65.1244 144.688 64.3324 144.688C63.555 144.688 62.873 144.878 62.2864 145.26C61.6997 145.626 61.179 146.198 60.7244 146.976L59.2724 145.766C59.8737 144.768 60.5997 144.02 61.4504 143.522C62.301 143.008 63.2837 142.752 64.3984 142.752C65.337 142.752 66.151 142.935 66.8404 143.302C67.5444 143.668 68.087 144.182 68.4684 144.842C68.8497 145.502 69.0404 146.272 69.0404 147.152C69.0404 147.782 68.9597 148.347 68.7984 148.846C68.6517 149.344 68.3804 149.858 67.9844 150.386C67.603 150.899 67.0677 151.515 66.3784 152.234L61.8244 156.92L59.1404 156.986ZM59.1404 158.24V156.986L60.9004 156.392H69.3924V158.24H59.1404ZM77.5767 158.46C76.4327 158.46 75.384 158.137 74.4307 157.492C73.492 156.846 72.744 155.937 72.1867 154.764C71.6294 153.576 71.3507 152.182 71.3507 150.584C71.3507 148.985 71.622 147.599 72.1647 146.426C72.722 145.252 73.47 144.35 74.4087 143.72C75.3474 143.074 76.3814 142.752 77.5107 142.752C78.6694 142.752 79.718 143.074 80.6567 143.72C81.5954 144.35 82.336 145.252 82.8787 146.426C83.436 147.599 83.7147 148.992 83.7147 150.606C83.7147 152.204 83.436 153.598 82.8787 154.786C82.336 155.959 81.5954 156.868 80.6567 157.514C79.7327 158.144 78.706 158.46 77.5767 158.46ZM77.5327 156.502C78.3394 156.502 79.0434 156.282 79.6447 155.842C80.2607 155.387 80.7447 154.72 81.0967 153.84C81.4487 152.96 81.6247 151.874 81.6247 150.584C81.6247 149.293 81.4487 148.215 81.0967 147.35C80.7447 146.47 80.2607 145.81 79.6447 145.37C79.0287 144.915 78.3174 144.688 77.5107 144.688C76.7187 144.688 76.0147 144.915 75.3987 145.37C74.7827 145.81 74.2987 146.47 73.9467 147.35C73.6094 148.215 73.4407 149.293 73.4407 150.584C73.4407 151.874 73.6094 152.96 73.9467 153.84C74.2987 154.72 74.7827 155.387 75.3987 155.842C76.0147 156.282 76.726 156.502 77.5327 156.502ZM85.4372 156.986L91.0692 151.046C91.6412 150.459 92.0886 149.953 92.4112 149.528C92.7339 149.088 92.9612 148.684 93.0932 148.318C93.2399 147.951 93.3132 147.57 93.3132 147.174C93.3132 146.396 93.0639 145.788 92.5652 145.348C92.0666 144.908 91.4212 144.688 90.6292 144.688C89.8519 144.688 89.1699 144.878 88.5832 145.26C87.9966 145.626 87.4759 146.198 87.0212 146.976L85.5692 145.766C86.1706 144.768 86.8966 144.02 87.7472 143.522C88.5979 143.008 89.5806 142.752 90.6952 142.752C91.6339 142.752 92.4479 142.935 93.1372 143.302C93.8412 143.668 94.3839 144.182 94.7652 144.842C95.1466 145.502 95.3372 146.272 95.3372 147.152C95.3372 147.782 95.2566 148.347 95.0952 148.846C94.9486 149.344 94.6772 149.858 94.2812 150.386C93.8999 150.899 93.3646 151.515 92.6752 152.234L88.1212 156.92L85.4372 156.986ZM85.4372 158.24V156.986L87.1972 156.392H95.6892V158.24H85.4372ZM100.42 158.24V142.972H102.466V158.24H100.42ZM97.2956 144.82V142.972H102.246V144.82H97.2956ZM114.713 158.46C113.759 158.46 112.894 158.225 112.117 157.756C111.339 157.272 110.723 156.619 110.269 155.798C109.829 154.976 109.609 154.052 109.609 153.026C109.609 151.999 109.829 151.075 110.269 150.254C110.723 149.432 111.332 148.78 112.095 148.296C112.872 147.812 113.745 147.57 114.713 147.57C115.505 147.57 116.209 147.738 116.825 148.076C117.455 148.398 117.961 148.853 118.343 149.44C118.724 150.012 118.937 150.679 118.981 151.442V154.588C118.937 155.336 118.724 156.003 118.343 156.59C117.976 157.176 117.477 157.638 116.847 157.976C116.231 158.298 115.519 158.46 114.713 158.46ZM115.043 156.59C116.025 156.59 116.817 156.26 117.419 155.6C118.02 154.925 118.321 154.067 118.321 153.026C118.321 152.307 118.181 151.684 117.903 151.156C117.639 150.613 117.257 150.195 116.759 149.902C116.26 149.594 115.681 149.44 115.021 149.44C114.361 149.44 113.774 149.594 113.261 149.902C112.762 150.21 112.366 150.635 112.073 151.178C111.794 151.706 111.655 152.314 111.655 153.004C111.655 153.708 111.794 154.331 112.073 154.874C112.366 155.402 112.769 155.82 113.283 156.128C113.796 156.436 114.383 156.59 115.043 156.59ZM118.189 158.24V155.424L118.563 152.872L118.189 150.342V147.79H120.191V158.24H118.189ZM130.465 158.24V152.146C130.465 151.354 130.216 150.701 129.717 150.188C129.219 149.674 128.573 149.418 127.781 149.418C127.253 149.418 126.784 149.535 126.373 149.77C125.963 150.004 125.64 150.327 125.405 150.738C125.171 151.148 125.053 151.618 125.053 152.146L124.239 151.684C124.239 150.892 124.415 150.188 124.767 149.572C125.119 148.956 125.611 148.472 126.241 148.12C126.872 147.753 127.583 147.57 128.375 147.57C129.167 147.57 129.864 147.768 130.465 148.164C131.081 148.56 131.565 149.08 131.917 149.726C132.269 150.356 132.445 151.031 132.445 151.75V158.24H130.465ZM123.073 158.24V147.79H125.053V158.24H123.073ZM142.518 158.24V152.146C142.518 151.354 142.269 150.701 141.77 150.188C141.271 149.674 140.626 149.418 139.834 149.418C139.306 149.418 138.837 149.535 138.426 149.77C138.015 150.004 137.693 150.327 137.458 150.738C137.223 151.148 137.106 151.618 137.106 152.146L136.292 151.684C136.292 150.892 136.468 150.188 136.82 149.572C137.172 148.956 137.663 148.472 138.294 148.12C138.925 147.753 139.636 147.57 140.428 147.57C141.22 147.57 141.917 147.768 142.518 148.164C143.134 148.56 143.618 149.08 143.97 149.726C144.322 150.356 144.498 151.031 144.498 151.75V158.24H142.518ZM135.126 158.24V147.79H137.106V158.24H135.126ZM151.381 158.46C150.53 158.46 149.76 158.269 149.071 157.888C148.396 157.492 147.868 156.949 147.487 156.26C147.106 155.57 146.915 154.771 146.915 153.862V147.79H148.895V153.774C148.895 154.346 148.99 154.844 149.181 155.27C149.386 155.68 149.68 155.996 150.061 156.216C150.442 156.436 150.89 156.546 151.403 156.546C152.18 156.546 152.789 156.304 153.229 155.82C153.669 155.321 153.889 154.639 153.889 153.774V147.79H155.869V153.862C155.869 154.771 155.678 155.57 155.297 156.26C154.916 156.949 154.388 157.492 153.713 157.888C153.053 158.269 152.276 158.46 151.381 158.46ZM162.967 158.46C162.013 158.46 161.148 158.225 160.371 157.756C159.593 157.272 158.977 156.619 158.523 155.798C158.083 154.976 157.863 154.052 157.863 153.026C157.863 151.999 158.083 151.075 158.523 150.254C158.977 149.432 159.586 148.78 160.349 148.296C161.126 147.812 161.999 147.57 162.967 147.57C163.759 147.57 164.463 147.738 165.079 148.076C165.709 148.398 166.215 148.853 166.597 149.44C166.978 150.012 167.191 150.679 167.235 151.442V154.588C167.191 155.336 166.978 156.003 166.597 156.59C166.23 157.176 165.731 157.638 165.101 157.976C164.485 158.298 163.773 158.46 162.967 158.46ZM163.297 156.59C164.279 156.59 165.071 156.26 165.673 155.6C166.274 154.925 166.575 154.067 166.575 153.026C166.575 152.307 166.435 151.684 166.157 151.156C165.893 150.613 165.511 150.195 165.013 149.902C164.514 149.594 163.935 149.44 163.275 149.44C162.615 149.44 162.028 149.594 161.515 149.902C161.016 150.21 160.62 150.635 160.327 151.178C160.048 151.706 159.909 152.314 159.909 153.004C159.909 153.708 160.048 154.331 160.327 154.874C160.62 155.402 161.023 155.82 161.537 156.128C162.05 156.436 162.637 156.59 163.297 156.59ZM166.443 158.24V155.424L166.817 152.872L166.443 150.342V147.79H168.445V158.24H166.443ZM171.327 158.24V142.532H173.307V158.24H171.327ZM180.78 158.24V147.79H182.76V158.24H180.78ZM182.76 152.278L182.012 151.948C182.012 150.613 182.32 149.55 182.936 148.758C183.552 147.966 184.44 147.57 185.598 147.57C186.126 147.57 186.603 147.665 187.028 147.856C187.454 148.032 187.85 148.332 188.216 148.758L186.918 150.1C186.698 149.865 186.456 149.696 186.192 149.594C185.928 149.491 185.62 149.44 185.268 149.44C184.535 149.44 183.934 149.674 183.464 150.144C182.995 150.613 182.76 151.324 182.76 152.278ZM194.107 158.46C193.065 158.46 192.127 158.225 191.291 157.756C190.455 157.272 189.795 156.619 189.311 155.798C188.827 154.976 188.585 154.045 188.585 153.004C188.585 151.977 188.819 151.053 189.289 150.232C189.773 149.41 190.418 148.765 191.225 148.296C192.046 147.812 192.963 147.57 193.975 147.57C194.943 147.57 195.793 147.79 196.527 148.23C197.275 148.67 197.854 149.278 198.265 150.056C198.69 150.833 198.903 151.713 198.903 152.696C198.903 152.842 198.895 153.004 198.881 153.18C198.866 153.341 198.837 153.532 198.793 153.752H189.971V152.102H197.737L197.011 152.74C197.011 152.036 196.886 151.442 196.637 150.958C196.387 150.459 196.035 150.078 195.581 149.814C195.126 149.535 194.576 149.396 193.931 149.396C193.256 149.396 192.662 149.542 192.149 149.836C191.635 150.129 191.239 150.54 190.961 151.068C190.682 151.596 190.543 152.219 190.543 152.938C190.543 153.671 190.689 154.316 190.983 154.874C191.276 155.416 191.694 155.842 192.237 156.15C192.779 156.443 193.403 156.59 194.107 156.59C194.693 156.59 195.229 156.487 195.713 156.282C196.211 156.076 196.637 155.768 196.989 155.358L198.265 156.656C197.766 157.242 197.15 157.69 196.417 157.998C195.698 158.306 194.928 158.46 194.107 158.46ZM204.476 158.24L199.68 147.79H201.88L205.73 156.612H204.454L208.326 147.79H210.438L205.642 158.24H204.476ZM216.558 158.46C215.517 158.46 214.578 158.225 213.742 157.756C212.906 157.272 212.246 156.619 211.762 155.798C211.278 154.976 211.036 154.045 211.036 153.004C211.036 151.977 211.271 151.053 211.74 150.232C212.224 149.41 212.869 148.765 213.676 148.296C214.497 147.812 215.414 147.57 216.426 147.57C217.394 147.57 218.245 147.79 218.978 148.23C219.726 148.67 220.305 149.278 220.716 150.056C221.141 150.833 221.354 151.713 221.354 152.696C221.354 152.842 221.347 153.004 221.332 153.18C221.317 153.341 221.288 153.532 221.244 153.752H212.422V152.102H220.188L219.462 152.74C219.462 152.036 219.337 151.442 219.088 150.958C218.839 150.459 218.487 150.078 218.032 149.814C217.577 149.535 217.027 149.396 216.382 149.396C215.707 149.396 215.113 149.542 214.6 149.836C214.087 150.129 213.691 150.54 213.412 151.068C213.133 151.596 212.994 152.219 212.994 152.938C212.994 153.671 213.141 154.316 213.434 154.874C213.727 155.416 214.145 155.842 214.688 156.15C215.231 156.443 215.854 156.59 216.558 156.59C217.145 156.59 217.68 156.487 218.164 156.282C218.663 156.076 219.088 155.768 219.44 155.358L220.716 156.656C220.217 157.242 219.601 157.69 218.868 157.998C218.149 158.306 217.379 158.46 216.558 158.46ZM230.905 158.24V152.146C230.905 151.354 230.656 150.701 230.157 150.188C229.658 149.674 229.013 149.418 228.221 149.418C227.693 149.418 227.224 149.535 226.813 149.77C226.402 150.004 226.08 150.327 225.845 150.738C225.61 151.148 225.493 151.618 225.493 152.146L224.679 151.684C224.679 150.892 224.855 150.188 225.207 149.572C225.559 148.956 226.05 148.472 226.681 148.12C227.312 147.753 228.023 147.57 228.815 147.57C229.607 147.57 230.304 147.768 230.905 148.164C231.521 148.56 232.005 149.08 232.357 149.726C232.709 150.356 232.885 151.031 232.885 151.75V158.24H230.905ZM223.513 158.24V147.79H225.493V158.24H223.513ZM239.768 158.46C238.917 158.46 238.147 158.269 237.458 157.888C236.783 157.492 236.255 156.949 235.874 156.26C235.492 155.57 235.302 154.771 235.302 153.862V147.79H237.282V153.774C237.282 154.346 237.377 154.844 237.568 155.27C237.773 155.68 238.066 155.996 238.448 156.216C238.829 156.436 239.276 156.546 239.79 156.546C240.567 156.546 241.176 156.304 241.616 155.82C242.056 155.321 242.276 154.639 242.276 153.774V147.79H244.256V153.862C244.256 154.771 244.065 155.57 243.684 156.26C243.302 156.949 242.774 157.492 242.1 157.888C241.44 158.269 240.662 158.46 239.768 158.46ZM251.749 158.46C250.708 158.46 249.769 158.225 248.933 157.756C248.097 157.272 247.437 156.619 246.953 155.798C246.469 154.976 246.227 154.045 246.227 153.004C246.227 151.977 246.462 151.053 246.931 150.232C247.415 149.41 248.061 148.765 248.867 148.296C249.689 147.812 250.605 147.57 251.617 147.57C252.585 147.57 253.436 147.79 254.169 148.23C254.917 148.67 255.497 149.278 255.907 150.056C256.333 150.833 256.545 151.713 256.545 152.696C256.545 152.842 256.538 153.004 256.523 153.18C256.509 153.341 256.479 153.532 256.435 153.752H247.613V152.102H255.379L254.653 152.74C254.653 152.036 254.529 151.442 254.279 150.958C254.03 150.459 253.678 150.078 253.223 149.814C252.769 149.535 252.219 149.396 251.573 149.396C250.899 149.396 250.305 149.542 249.791 149.836C249.278 150.129 248.882 150.54 248.603 151.068C248.325 151.596 248.185 152.219 248.185 152.938C248.185 153.671 248.332 154.316 248.625 154.874C248.919 155.416 249.337 155.842 249.879 156.15C250.422 156.443 251.045 156.59 251.749 156.59C252.336 156.59 252.871 156.487 253.355 156.282C253.854 156.076 254.279 155.768 254.631 155.358L255.907 156.656C255.409 157.242 254.793 157.69 254.059 157.998C253.341 158.306 252.571 158.46 251.749 158.46ZM268.054 158.46C267.028 158.46 266.104 158.218 265.282 157.734C264.461 157.25 263.808 156.597 263.324 155.776C262.84 154.94 262.598 154.008 262.598 152.982C262.598 151.97 262.84 151.06 263.324 150.254C263.808 149.432 264.461 148.78 265.282 148.296C266.104 147.812 267.028 147.57 268.054 147.57C269.066 147.57 269.983 147.812 270.804 148.296C271.64 148.765 272.3 149.41 272.784 150.232C273.268 151.053 273.51 151.97 273.51 152.982C273.51 154.008 273.268 154.94 272.784 155.776C272.3 156.597 271.64 157.25 270.804 157.734C269.983 158.218 269.066 158.46 268.054 158.46ZM268.054 156.546C268.714 156.546 269.301 156.392 269.814 156.084C270.328 155.776 270.731 155.358 271.024 154.83C271.318 154.287 271.464 153.671 271.464 152.982C271.464 152.307 271.31 151.706 271.002 151.178C270.709 150.65 270.306 150.239 269.792 149.946C269.294 149.638 268.714 149.484 268.054 149.484C267.394 149.484 266.808 149.638 266.294 149.946C265.781 150.239 265.378 150.65 265.084 151.178C264.791 151.706 264.644 152.307 264.644 152.982C264.644 153.671 264.791 154.287 265.084 154.83C265.378 155.358 265.781 155.776 266.294 156.084C266.808 156.392 267.394 156.546 268.054 156.546ZM276.915 158.24V146.228C276.915 145.45 277.084 144.776 277.421 144.204C277.758 143.617 278.22 143.155 278.807 142.818C279.408 142.48 280.105 142.312 280.897 142.312C281.498 142.312 282.019 142.414 282.459 142.62C282.899 142.825 283.302 143.126 283.669 143.522L282.371 144.798C282.18 144.592 281.968 144.438 281.733 144.336C281.498 144.218 281.212 144.16 280.875 144.16C280.244 144.16 279.753 144.343 279.401 144.71C279.064 145.076 278.895 145.582 278.895 146.228V158.24H276.915ZM274.341 149.594V147.79H282.217V149.594H274.341ZM58.8396 189.46C57.8129 189.46 56.8816 189.218 56.0456 188.734C55.2242 188.25 54.5716 187.597 54.0876 186.776C53.6182 185.94 53.3836 185.016 53.3836 184.004C53.3836 182.977 53.6182 182.053 54.0876 181.232C54.5716 180.41 55.2242 179.765 56.0456 179.296C56.8816 178.812 57.8129 178.57 58.8396 178.57C59.6462 178.57 60.3942 178.724 61.0836 179.032C61.7729 179.325 62.3669 179.758 62.8656 180.33L61.5456 181.65C61.2229 181.268 60.8269 180.982 60.3576 180.792C59.9029 180.586 59.3969 180.484 58.8396 180.484C58.1796 180.484 57.5929 180.638 57.0796 180.946C56.5662 181.239 56.1629 181.65 55.8696 182.178C55.5762 182.706 55.4296 183.314 55.4296 184.004C55.4296 184.693 55.5762 185.302 55.8696 185.83C56.1629 186.358 56.5662 186.776 57.0796 187.084C57.5929 187.392 58.1796 187.546 58.8396 187.546C59.3969 187.546 59.9029 187.45 60.3576 187.26C60.8269 187.054 61.2302 186.761 61.5676 186.38L62.8656 187.7C62.3816 188.257 61.7876 188.69 61.0836 188.998C60.3942 189.306 59.6462 189.46 58.8396 189.46ZM69.0312 189.46C68.1806 189.46 67.4106 189.269 66.7212 188.888C66.0466 188.492 65.5186 187.949 65.1372 187.26C64.7559 186.57 64.5652 185.771 64.5652 184.862V178.79H66.5452V184.774C66.5452 185.346 66.6406 185.844 66.8312 186.27C67.0366 186.68 67.3299 186.996 67.7112 187.216C68.0926 187.436 68.5399 187.546 69.0532 187.546C69.8306 187.546 70.4392 187.304 70.8792 186.82C71.3192 186.321 71.5392 185.639 71.5392 184.774V178.79H73.5192V184.862C73.5192 185.771 73.3286 186.57 72.9472 187.26C72.5659 187.949 72.0379 188.492 71.3632 188.888C70.7032 189.269 69.9259 189.46 69.0312 189.46ZM76.173 189.24V178.79H78.153V189.24H76.173ZM78.153 183.278L77.405 182.948C77.405 181.613 77.713 180.55 78.329 179.758C78.945 178.966 79.8323 178.57 80.991 178.57C81.519 178.57 81.9957 178.665 82.421 178.856C82.8463 179.032 83.2423 179.332 83.609 179.758L82.311 181.1C82.091 180.865 81.849 180.696 81.585 180.594C81.321 180.491 81.013 180.44 80.661 180.44C79.9277 180.44 79.3263 180.674 78.857 181.144C78.3877 181.613 78.153 182.324 78.153 183.278ZM85.046 189.24V178.79H87.026V189.24H85.046ZM87.026 183.278L86.278 182.948C86.278 181.613 86.586 180.55 87.202 179.758C87.818 178.966 88.7054 178.57 89.864 178.57C90.392 178.57 90.8687 178.665 91.294 178.856C91.7194 179.032 92.1154 179.332 92.482 179.758L91.184 181.1C90.964 180.865 90.722 180.696 90.458 180.594C90.194 180.491 89.886 180.44 89.534 180.44C88.8007 180.44 88.1994 180.674 87.73 181.144C87.2607 181.613 87.026 182.324 87.026 183.278ZM98.3724 189.46C97.331 189.46 96.3924 189.225 95.5564 188.756C94.7204 188.272 94.0604 187.619 93.5764 186.798C93.0924 185.976 92.8504 185.045 92.8504 184.004C92.8504 182.977 93.085 182.053 93.5544 181.232C94.0384 180.41 94.6837 179.765 95.4904 179.296C96.3117 178.812 97.2284 178.57 98.2404 178.57C99.2084 178.57 100.059 178.79 100.792 179.23C101.54 179.67 102.12 180.278 102.53 181.056C102.956 181.833 103.168 182.713 103.168 183.696C103.168 183.842 103.161 184.004 103.146 184.18C103.132 184.341 103.102 184.532 103.058 184.752H94.2364V183.102H102.002L101.276 183.74C101.276 183.036 101.152 182.442 100.902 181.958C100.653 181.459 100.301 181.078 99.8464 180.814C99.3917 180.535 98.8417 180.396 98.1964 180.396C97.5217 180.396 96.9277 180.542 96.4144 180.836C95.901 181.129 95.505 181.54 95.2264 182.068C94.9477 182.596 94.8084 183.219 94.8084 183.938C94.8084 184.671 94.955 185.316 95.2484 185.874C95.5417 186.416 95.9597 186.842 96.5024 187.15C97.045 187.443 97.6684 187.59 98.3724 187.59C98.959 187.59 99.4944 187.487 99.9784 187.282C100.477 187.076 100.902 186.768 101.254 186.358L102.53 187.656C102.032 188.242 101.416 188.69 100.682 188.998C99.9637 189.306 99.1937 189.46 98.3724 189.46ZM112.719 189.24V183.146C112.719 182.354 112.47 181.701 111.971 181.188C111.473 180.674 110.827 180.418 110.035 180.418C109.507 180.418 109.038 180.535 108.627 180.77C108.217 181.004 107.894 181.327 107.659 181.738C107.425 182.148 107.307 182.618 107.307 183.146L106.493 182.684C106.493 181.892 106.669 181.188 107.021 180.572C107.373 179.956 107.865 179.472 108.495 179.12C109.126 178.753 109.837 178.57 110.629 178.57C111.421 178.57 112.118 178.768 112.719 179.164C113.335 179.56 113.819 180.08 114.171 180.726C114.523 181.356 114.699 182.031 114.699 182.75V189.24H112.719ZM105.327 189.24V178.79H107.307V189.24H105.327ZM118.857 189.24V174.412H120.837V189.24H118.857ZM116.283 180.594V178.79H123.411V180.594H116.283ZM131.423 189.24V177.382C131.423 176.648 131.592 175.974 131.929 175.358C132.266 174.742 132.75 174.25 133.381 173.884C134.026 173.502 134.767 173.312 135.603 173.312V175.16C134.884 175.16 134.334 175.38 133.953 175.82C133.586 176.245 133.403 176.766 133.403 177.382V189.24H131.423ZM128.849 180.594V178.79H138.463V180.594H128.849ZM137.649 189.24V173.444H139.629V189.24H137.649ZM146.982 189.46C146.029 189.46 145.164 189.225 144.386 188.756C143.609 188.272 142.993 187.619 142.538 186.798C142.098 185.976 141.878 185.052 141.878 184.026C141.878 182.999 142.098 182.075 142.538 181.254C142.993 180.432 143.602 179.78 144.364 179.296C145.142 178.812 146.014 178.57 146.982 178.57C147.774 178.57 148.478 178.738 149.094 179.076C149.725 179.398 150.231 179.853 150.612 180.44C150.994 181.012 151.206 181.679 151.25 182.442V185.588C151.206 186.336 150.994 187.003 150.612 187.59C150.246 188.176 149.747 188.638 149.116 188.976C148.5 189.298 147.789 189.46 146.982 189.46ZM147.312 187.59C148.295 187.59 149.087 187.26 149.688 186.6C150.29 185.925 150.59 185.067 150.59 184.026C150.59 183.307 150.451 182.684 150.172 182.156C149.908 181.613 149.527 181.195 149.028 180.902C148.53 180.594 147.95 180.44 147.29 180.44C146.63 180.44 146.044 180.594 145.53 180.902C145.032 181.21 144.636 181.635 144.342 182.178C144.064 182.706 143.924 183.314 143.924 184.004C143.924 184.708 144.064 185.331 144.342 185.874C144.636 186.402 145.039 186.82 145.552 187.128C146.066 187.436 146.652 187.59 147.312 187.59ZM150.458 189.24V186.424L150.832 183.872L150.458 181.342V178.79H152.46V189.24H150.458ZM159.677 193.838C158.606 193.838 157.653 193.64 156.817 193.244C155.996 192.848 155.336 192.29 154.837 191.572L156.113 190.274C156.538 190.816 157.044 191.227 157.631 191.506C158.218 191.799 158.914 191.946 159.721 191.946C160.792 191.946 161.635 191.66 162.251 191.088C162.882 190.53 163.197 189.775 163.197 188.822V186.226L163.549 183.872L163.197 181.54V178.79H165.177V188.822C165.177 189.819 164.942 190.692 164.473 191.44C164.018 192.188 163.373 192.774 162.537 193.2C161.716 193.625 160.762 193.838 159.677 193.838ZM159.677 189.064C158.724 189.064 157.866 188.836 157.103 188.382C156.355 187.927 155.761 187.304 155.321 186.512C154.881 185.705 154.661 184.803 154.661 183.806C154.661 182.808 154.881 181.921 155.321 181.144C155.761 180.352 156.355 179.728 157.103 179.274C157.866 178.804 158.724 178.57 159.677 178.57C160.498 178.57 161.224 178.731 161.855 179.054C162.486 179.376 162.984 179.831 163.351 180.418C163.732 180.99 163.938 181.664 163.967 182.442V185.214C163.923 185.976 163.71 186.651 163.329 187.238C162.962 187.81 162.464 188.257 161.833 188.58C161.202 188.902 160.484 189.064 159.677 189.064ZM160.073 187.194C160.718 187.194 161.283 187.054 161.767 186.776C162.266 186.497 162.647 186.108 162.911 185.61C163.175 185.096 163.307 184.502 163.307 183.828C163.307 183.153 163.168 182.566 162.889 182.068C162.625 181.554 162.251 181.158 161.767 180.88C161.283 180.586 160.711 180.44 160.051 180.44C159.391 180.44 158.812 180.586 158.313 180.88C157.814 181.158 157.418 181.554 157.125 182.068C156.846 182.566 156.707 183.146 156.707 183.806C156.707 184.466 156.846 185.052 157.125 185.566C157.418 186.079 157.814 186.482 158.313 186.776C158.826 187.054 159.413 187.194 160.073 187.194ZM171.405 189.46C170.818 189.46 170.261 189.386 169.733 189.24C169.22 189.078 168.743 188.858 168.303 188.58C167.863 188.286 167.482 187.942 167.159 187.546L168.435 186.27C168.816 186.739 169.256 187.091 169.755 187.326C170.254 187.546 170.811 187.656 171.427 187.656C172.043 187.656 172.52 187.553 172.857 187.348C173.194 187.128 173.363 186.827 173.363 186.446C173.363 186.064 173.224 185.771 172.945 185.566C172.681 185.346 172.336 185.17 171.911 185.038C171.486 184.891 171.031 184.752 170.547 184.62C170.078 184.473 169.63 184.29 169.205 184.07C168.78 183.85 168.428 183.549 168.149 183.168C167.885 182.786 167.753 182.28 167.753 181.65C167.753 181.019 167.907 180.476 168.215 180.022C168.523 179.552 168.948 179.193 169.491 178.944C170.048 178.694 170.716 178.57 171.493 178.57C172.314 178.57 173.04 178.716 173.671 179.01C174.316 179.288 174.844 179.714 175.255 180.286L173.979 181.562C173.686 181.18 173.319 180.887 172.879 180.682C172.454 180.476 171.97 180.374 171.427 180.374C170.855 180.374 170.415 180.476 170.107 180.682C169.814 180.872 169.667 181.144 169.667 181.496C169.667 181.848 169.799 182.119 170.063 182.31C170.327 182.5 170.672 182.662 171.097 182.794C171.537 182.926 171.992 183.065 172.461 183.212C172.93 183.344 173.378 183.527 173.803 183.762C174.228 183.996 174.573 184.312 174.837 184.708C175.116 185.104 175.255 185.624 175.255 186.27C175.255 187.252 174.903 188.03 174.199 188.602C173.51 189.174 172.578 189.46 171.405 189.46ZM184.864 189.24V183.146C184.864 182.354 184.614 181.701 184.116 181.188C183.617 180.674 182.972 180.418 182.18 180.418C181.652 180.418 181.182 180.535 180.772 180.77C180.361 181.004 180.038 181.327 179.804 181.738C179.569 182.148 179.452 182.618 179.452 183.146L178.638 182.684C178.638 181.892 178.814 181.188 179.166 180.572C179.518 179.956 180.009 179.472 180.64 179.12C181.27 178.753 181.982 178.57 182.774 178.57C183.566 178.57 184.262 178.746 184.864 179.098C185.48 179.45 185.964 179.941 186.316 180.572C186.668 181.202 186.844 181.928 186.844 182.75V189.24H184.864ZM177.472 189.24V173.532H179.452V189.24H177.472ZM189.547 189.24V178.79H191.527V189.24H189.547ZM190.537 176.7C190.17 176.7 189.869 176.582 189.635 176.348C189.4 176.098 189.283 175.79 189.283 175.424C189.283 175.072 189.4 174.778 189.635 174.544C189.869 174.294 190.17 174.17 190.537 174.17C190.903 174.17 191.204 174.294 191.439 174.544C191.673 174.778 191.791 175.072 191.791 175.424C191.791 175.79 191.673 176.098 191.439 176.348C191.204 176.582 190.903 176.7 190.537 176.7ZM199.944 189.46C199.152 189.46 198.434 189.298 197.788 188.976C197.158 188.638 196.652 188.176 196.27 187.59C195.889 187.003 195.676 186.336 195.632 185.588V182.442C195.676 181.679 195.889 181.012 196.27 180.44C196.666 179.853 197.18 179.398 197.81 179.076C198.456 178.738 199.167 178.57 199.944 178.57C200.898 178.57 201.756 178.812 202.518 179.296C203.296 179.78 203.904 180.432 204.344 181.254C204.784 182.075 205.004 182.999 205.004 184.026C205.004 185.052 204.784 185.976 204.344 186.798C203.904 187.619 203.296 188.272 202.518 188.756C201.756 189.225 200.898 189.46 199.944 189.46ZM199.614 187.59C200.274 187.59 200.854 187.436 201.352 187.128C201.851 186.82 202.247 186.402 202.54 185.874C202.834 185.331 202.98 184.708 202.98 184.004C202.98 183.314 202.834 182.698 202.54 182.156C202.247 181.613 201.851 181.195 201.352 180.902C200.854 180.594 200.282 180.44 199.636 180.44C198.976 180.44 198.397 180.594 197.898 180.902C197.4 181.195 197.011 181.613 196.732 182.156C196.454 182.698 196.314 183.322 196.314 184.026C196.314 184.715 196.446 185.331 196.71 185.874C196.989 186.402 197.378 186.82 197.876 187.128C198.39 187.436 198.969 187.59 199.614 187.59ZM194.444 193.618V178.79H196.424V181.54L196.05 184.07L196.424 186.622V193.618H194.444ZM211.825 189.24V173.532H213.805V189.24H211.825ZM221.476 189.46C220.45 189.46 219.526 189.218 218.704 188.734C217.883 188.25 217.23 187.597 216.746 186.776C216.262 185.94 216.02 185.008 216.02 183.982C216.02 182.97 216.262 182.06 216.746 181.254C217.23 180.432 217.883 179.78 218.704 179.296C219.526 178.812 220.45 178.57 221.476 178.57C222.488 178.57 223.405 178.812 224.226 179.296C225.062 179.765 225.722 180.41 226.206 181.232C226.69 182.053 226.932 182.97 226.932 183.982C226.932 185.008 226.69 185.94 226.206 186.776C225.722 187.597 225.062 188.25 224.226 188.734C223.405 189.218 222.488 189.46 221.476 189.46ZM221.476 187.546C222.136 187.546 222.723 187.392 223.236 187.084C223.75 186.776 224.153 186.358 224.446 185.83C224.74 185.287 224.886 184.671 224.886 183.982C224.886 183.307 224.732 182.706 224.424 182.178C224.131 181.65 223.728 181.239 223.214 180.946C222.716 180.638 222.136 180.484 221.476 180.484C220.816 180.484 220.23 180.638 219.716 180.946C219.203 181.239 218.8 181.65 218.506 182.178C218.213 182.706 218.066 183.307 218.066 183.982C218.066 184.671 218.213 185.287 218.506 185.83C218.8 186.358 219.203 186.776 219.716 187.084C220.23 187.392 220.816 187.546 221.476 187.546ZM233.937 189.46C232.911 189.46 231.979 189.218 231.143 188.734C230.322 188.25 229.669 187.597 229.185 186.776C228.716 185.94 228.481 185.016 228.481 184.004C228.481 182.977 228.716 182.053 229.185 181.232C229.669 180.41 230.322 179.765 231.143 179.296C231.979 178.812 232.911 178.57 233.937 178.57C234.744 178.57 235.492 178.724 236.181 179.032C236.871 179.325 237.465 179.758 237.963 180.33L236.643 181.65C236.321 181.268 235.925 180.982 235.455 180.792C235.001 180.586 234.495 180.484 233.937 180.484C233.277 180.484 232.691 180.638 232.177 180.946C231.664 181.239 231.261 181.65 230.967 182.178C230.674 182.706 230.527 183.314 230.527 184.004C230.527 184.693 230.674 185.302 230.967 185.83C231.261 186.358 231.664 186.776 232.177 187.084C232.691 187.392 233.277 187.546 233.937 187.546C234.495 187.546 235.001 187.45 235.455 187.26C235.925 187.054 236.328 186.761 236.665 186.38L237.963 187.7C237.479 188.257 236.885 188.69 236.181 188.998C235.492 189.306 234.744 189.46 233.937 189.46ZM244.156 189.46C243.203 189.46 242.337 189.225 241.56 188.756C240.783 188.272 240.167 187.619 239.712 186.798C239.272 185.976 239.052 185.052 239.052 184.026C239.052 182.999 239.272 182.075 239.712 181.254C240.167 180.432 240.775 179.78 241.538 179.296C242.315 178.812 243.188 178.57 244.156 178.57C244.948 178.57 245.652 178.738 246.268 179.076C246.899 179.398 247.405 179.853 247.786 180.44C248.167 181.012 248.38 181.679 248.424 182.442V185.588C248.38 186.336 248.167 187.003 247.786 187.59C247.419 188.176 246.921 188.638 246.29 188.976C245.674 189.298 244.963 189.46 244.156 189.46ZM244.486 187.59C245.469 187.59 246.261 187.26 246.862 186.6C247.463 185.925 247.764 185.067 247.764 184.026C247.764 183.307 247.625 182.684 247.346 182.156C247.082 181.613 246.701 181.195 246.202 180.902C245.703 180.594 245.124 180.44 244.464 180.44C243.804 180.44 243.217 180.594 242.704 180.902C242.205 181.21 241.809 181.635 241.516 182.178C241.237 182.706 241.098 183.314 241.098 184.004C241.098 184.708 241.237 185.331 241.516 185.874C241.809 186.402 242.213 186.82 242.726 187.128C243.239 187.436 243.826 187.59 244.486 187.59ZM247.632 189.24V186.424L248.006 183.872L247.632 181.342V178.79H249.634V189.24H247.632ZM254.08 189.24V174.412H256.06V189.24H254.08ZM251.506 180.594V178.79H258.634V180.594H251.506ZM260.595 189.24V178.79H262.575V189.24H260.595ZM261.585 176.7C261.219 176.7 260.918 176.582 260.683 176.348C260.449 176.098 260.331 175.79 260.331 175.424C260.331 175.072 260.449 174.778 260.683 174.544C260.918 174.294 261.219 174.17 261.585 174.17C261.952 174.17 262.253 174.294 262.487 174.544C262.722 174.778 262.839 175.072 262.839 175.424C262.839 175.79 262.722 176.098 262.487 176.348C262.253 176.582 261.952 176.7 261.585 176.7ZM270.267 189.46C269.241 189.46 268.317 189.218 267.495 188.734C266.674 188.25 266.021 187.597 265.537 186.776C265.053 185.94 264.811 185.008 264.811 183.982C264.811 182.97 265.053 182.06 265.537 181.254C266.021 180.432 266.674 179.78 267.495 179.296C268.317 178.812 269.241 178.57 270.267 178.57C271.279 178.57 272.196 178.812 273.017 179.296C273.853 179.765 274.513 180.41 274.997 181.232C275.481 182.053 275.723 182.97 275.723 183.982C275.723 185.008 275.481 185.94 274.997 186.776C274.513 187.597 273.853 188.25 273.017 188.734C272.196 189.218 271.279 189.46 270.267 189.46ZM270.267 187.546C270.927 187.546 271.514 187.392 272.027 187.084C272.541 186.776 272.944 186.358 273.237 185.83C273.531 185.287 273.677 184.671 273.677 183.982C273.677 183.307 273.523 182.706 273.215 182.178C272.922 181.65 272.519 181.239 272.005 180.946C271.507 180.638 270.927 180.484 270.267 180.484C269.607 180.484 269.021 180.638 268.507 180.946C267.994 181.239 267.591 181.65 267.297 182.178C267.004 182.706 266.857 183.307 266.857 183.982C266.857 184.671 267.004 185.287 267.297 185.83C267.591 186.358 267.994 186.776 268.507 187.084C269.021 187.392 269.607 187.546 270.267 187.546ZM285.346 189.24V183.146C285.346 182.354 285.097 181.701 284.598 181.188C284.1 180.674 283.454 180.418 282.662 180.418C282.134 180.418 281.665 180.535 281.254 180.77C280.844 181.004 280.521 181.327 280.286 181.738C280.052 182.148 279.934 182.618 279.934 183.146L279.12 182.684C279.12 181.892 279.296 181.188 279.648 180.572C280 179.956 280.492 179.472 281.122 179.12C281.753 178.753 282.464 178.57 283.256 178.57C284.048 178.57 284.745 178.768 285.346 179.164C285.962 179.56 286.446 180.08 286.798 180.726C287.15 181.356 287.326 182.031 287.326 182.75V189.24H285.346ZM277.954 189.24V178.79H279.934V189.24H277.954Z" fill="white"/>
<path d="M109.248 313.728C106.624 313.728 104.336 313.28 102.384 312.384C100.432 311.456 98.6561 310.064 97.0561 308.208L101.808 303.36C102.864 304.64 104.032 305.648 105.312 306.384C106.592 307.088 108.064 307.44 109.728 307.44C111.296 307.44 112.512 307.152 113.376 306.576C114.24 305.968 114.672 305.12 114.672 304.032C114.672 303.104 114.384 302.352 113.808 301.776C113.264 301.2 112.528 300.704 111.6 300.288C110.672 299.872 109.648 299.472 108.528 299.088C107.408 298.704 106.288 298.272 105.168 297.792C104.08 297.28 103.072 296.656 102.144 295.92C101.216 295.152 100.464 294.208 99.8881 293.088C99.3121 291.936 99.0241 290.496 99.0241 288.768C99.0241 286.688 99.5201 284.896 100.512 283.392C101.536 281.888 102.928 280.752 104.688 279.984C106.448 279.184 108.464 278.784 110.736 278.784C112.944 278.784 115.008 279.2 116.928 280.032C118.848 280.864 120.416 282 121.632 283.44L116.88 288.288C115.888 287.232 114.88 286.432 113.856 285.888C112.864 285.312 111.776 285.024 110.592 285.024C109.216 285.024 108.144 285.28 107.376 285.792C106.608 286.304 106.224 287.056 106.224 288.048C106.224 288.912 106.512 289.616 107.088 290.16C107.664 290.672 108.416 291.12 109.344 291.504C110.304 291.888 111.328 292.272 112.416 292.656C113.536 293.04 114.656 293.488 115.776 294C116.896 294.512 117.92 295.168 118.848 295.968C119.808 296.736 120.576 297.728 121.152 298.944C121.728 300.128 122.016 301.6 122.016 303.36C122.016 306.592 120.88 309.136 118.608 310.992C116.368 312.816 113.248 313.728 109.248 313.728ZM107.664 309.984H112.944V318.048H107.664V309.984ZM112.944 282.24H107.664V274.464H112.944V282.24ZM136.394 313.728C134.058 313.728 131.914 313.328 129.962 312.528C128.01 311.696 126.362 310.512 125.018 308.976L129.866 304.128C130.474 305.024 131.354 305.76 132.506 306.336C133.69 306.88 134.938 307.152 136.25 307.152C137.434 307.152 138.458 306.944 139.322 306.528C140.186 306.112 140.858 305.52 141.338 304.752C141.85 303.984 142.106 303.072 142.106 302.016C142.106 300.96 141.85 300.064 141.338 299.328C140.858 298.56 140.138 297.968 139.178 297.552C138.25 297.136 137.13 296.928 135.818 296.928C135.21 296.928 134.57 296.976 133.898 297.072C133.258 297.136 132.714 297.248 132.266 297.408L135.578 293.232C136.474 292.976 137.322 292.768 138.122 292.608C138.954 292.416 139.722 292.32 140.426 292.32C142.154 292.32 143.706 292.736 145.082 293.568C146.458 294.368 147.546 295.52 148.346 297.024C149.178 298.496 149.594 300.256 149.594 302.304C149.594 304.544 149.034 306.528 147.914 308.256C146.826 309.984 145.29 311.328 143.306 312.288C141.354 313.248 139.05 313.728 136.394 313.728ZM132.266 297.408V293.232L140.522 283.536L148.97 283.488L140.378 293.28L132.266 297.408ZM127.13 285.696V279.312H148.97V283.488L143.066 285.696H127.13ZM157.184 313.728C155.936 313.728 154.896 313.296 154.064 312.432C153.232 311.568 152.816 310.528 152.816 309.312C152.816 308.032 153.232 306.976 154.064 306.144C154.896 305.28 155.936 304.848 157.184 304.848C158.464 304.848 159.504 305.28 160.304 306.144C161.136 306.976 161.552 308.032 161.552 309.312C161.552 310.528 161.136 311.568 160.304 312.432C159.504 313.296 158.464 313.728 157.184 313.728ZM177.863 313.728C175.431 313.728 173.303 313.296 171.479 312.432C169.687 311.568 168.279 310.384 167.255 308.88C166.263 307.376 165.767 305.664 165.767 303.744C165.767 302.144 166.071 300.704 166.679 299.424C167.319 298.144 168.199 297.072 169.319 296.208C170.471 295.344 171.799 294.752 173.303 294.432L173.159 295.968C171.879 295.68 170.791 295.152 169.895 294.384C168.999 293.584 168.311 292.624 167.831 291.504C167.351 290.384 167.111 289.216 167.111 288C167.111 286.208 167.559 284.624 168.455 283.248C169.383 281.84 170.663 280.736 172.295 279.936C173.927 279.136 175.783 278.736 177.863 278.736C179.975 278.736 181.831 279.136 183.431 279.936C185.063 280.736 186.327 281.84 187.223 283.248C188.151 284.624 188.615 286.208 188.615 288C188.615 289.216 188.375 290.384 187.895 291.504C187.447 292.624 186.775 293.584 185.879 294.384C184.983 295.152 183.895 295.68 182.615 295.968L182.423 294.432C183.959 294.752 185.287 295.344 186.407 296.208C187.559 297.072 188.439 298.144 189.047 299.424C189.655 300.704 189.959 302.144 189.959 303.744C189.959 305.664 189.463 307.376 188.471 308.88C187.479 310.384 186.071 311.568 184.247 312.432C182.455 313.296 180.327 313.728 177.863 313.728ZM177.863 307.296C178.823 307.296 179.671 307.104 180.407 306.72C181.143 306.304 181.719 305.744 182.135 305.04C182.583 304.336 182.807 303.552 182.807 302.688C182.807 301.792 182.583 301.008 182.135 300.336C181.719 299.632 181.143 299.088 180.407 298.704C179.671 298.288 178.823 298.08 177.863 298.08C176.903 298.08 176.055 298.288 175.319 298.704C174.583 299.088 174.007 299.632 173.591 300.336C173.175 301.008 172.967 301.792 172.967 302.688C172.967 303.552 173.175 304.336 173.591 305.04C174.007 305.744 174.583 306.304 175.319 306.72C176.055 307.104 176.903 307.296 177.863 307.296ZM177.863 292.608C178.983 292.608 179.895 292.256 180.599 291.552C181.335 290.816 181.703 289.904 181.703 288.816C181.703 287.696 181.335 286.784 180.599 286.08C179.895 285.344 178.983 284.976 177.863 284.976C176.775 284.976 175.863 285.328 175.127 286.032C174.391 286.736 174.023 287.648 174.023 288.768C174.023 289.856 174.391 290.768 175.127 291.504C175.863 292.24 176.775 292.608 177.863 292.608ZM203.733 313.2V279.312H209.109L222.453 300.096H219.717L233.013 279.312H238.437V313.2H230.901V292.032L232.245 292.368L223.557 305.904H218.565L209.925 292.368L211.221 292.032V313.2H203.733Z" fill="#FFF219"/>
<path d="M57.0027 357.946L62.6347 352.006C63.2067 351.42 63.654 350.914 63.9767 350.488C64.2993 350.048 64.5267 349.645 64.6587 349.278C64.8053 348.912 64.8787 348.53 64.8787 348.134C64.8787 347.357 64.6293 346.748 64.1307 346.308C63.632 345.868 62.9867 345.648 62.1947 345.648C61.4173 345.648 60.7353 345.839 60.1487 346.22C59.562 346.587 59.0413 347.159 58.5867 347.936L57.1347 346.726C57.736 345.729 58.462 344.981 59.3127 344.482C60.1633 343.969 61.146 343.712 62.2607 343.712C63.1993 343.712 64.0133 343.896 64.7027 344.262C65.4067 344.629 65.9493 345.142 66.3307 345.802C66.712 346.462 66.9027 347.232 66.9027 348.112C66.9027 348.743 66.822 349.308 66.6607 349.806C66.514 350.305 66.2427 350.818 65.8467 351.346C65.4653 351.86 64.93 352.476 64.2407 353.194L59.6867 357.88L57.0027 357.946ZM57.0027 359.2V357.946L58.7627 357.352H67.2547V359.2H57.0027ZM75.439 359.42C74.295 359.42 73.2463 359.098 72.293 358.452C71.3543 357.807 70.6063 356.898 70.049 355.724C69.4917 354.536 69.213 353.143 69.213 351.544C69.213 349.946 69.4843 348.56 70.027 347.386C70.5843 346.213 71.3323 345.311 72.271 344.68C73.2097 344.035 74.2437 343.712 75.373 343.712C76.5317 343.712 77.5803 344.035 78.519 344.68C79.4577 345.311 80.1983 346.213 80.741 347.386C81.2983 348.56 81.577 349.953 81.577 351.566C81.577 353.165 81.2983 354.558 80.741 355.746C80.1983 356.92 79.4577 357.829 78.519 358.474C77.595 359.105 76.5683 359.42 75.439 359.42ZM75.395 357.462C76.2017 357.462 76.9057 357.242 77.507 356.802C78.123 356.348 78.607 355.68 78.959 354.8C79.311 353.92 79.487 352.835 79.487 351.544C79.487 350.254 79.311 349.176 78.959 348.31C78.607 347.43 78.123 346.77 77.507 346.33C76.891 345.876 76.1797 345.648 75.373 345.648C74.581 345.648 73.877 345.876 73.261 346.33C72.645 346.77 72.161 347.43 71.809 348.31C71.4717 349.176 71.303 350.254 71.303 351.544C71.303 352.835 71.4717 353.92 71.809 354.8C72.161 355.68 72.645 356.348 73.261 356.802C73.877 357.242 74.5883 357.462 75.395 357.462ZM83.2995 357.946L88.9315 352.006C89.5035 351.42 89.9509 350.914 90.2735 350.488C90.5962 350.048 90.8235 349.645 90.9555 349.278C91.1022 348.912 91.1755 348.53 91.1755 348.134C91.1755 347.357 90.9262 346.748 90.4275 346.308C89.9289 345.868 89.2835 345.648 88.4915 345.648C87.7142 345.648 87.0322 345.839 86.4455 346.22C85.8589 346.587 85.3382 347.159 84.8835 347.936L83.4315 346.726C84.0329 345.729 84.7589 344.981 85.6095 344.482C86.4602 343.969 87.4429 343.712 88.5575 343.712C89.4962 343.712 90.3102 343.896 90.9995 344.262C91.7035 344.629 92.2462 345.142 92.6275 345.802C93.0089 346.462 93.1995 347.232 93.1995 348.112C93.1995 348.743 93.1189 349.308 92.9575 349.806C92.8109 350.305 92.5395 350.818 92.1435 351.346C91.7622 351.86 91.2269 352.476 90.5375 353.194L85.9835 357.88L83.2995 357.946ZM83.2995 359.2V357.946L85.0595 357.352H93.5515V359.2H83.2995ZM95.2019 357.946L100.834 352.006C101.406 351.42 101.853 350.914 102.176 350.488C102.499 350.048 102.726 349.645 102.858 349.278C103.005 348.912 103.078 348.53 103.078 348.134C103.078 347.357 102.829 346.748 102.33 346.308C101.831 345.868 101.186 345.648 100.394 345.648C99.6165 345.648 98.9345 345.839 98.3479 346.22C97.7612 346.587 97.2405 347.159 96.7859 347.936L95.3339 346.726C95.9352 345.729 96.6612 344.981 97.5119 344.482C98.3625 343.969 99.3452 343.712 100.46 343.712C101.399 343.712 102.213 343.896 102.902 344.262C103.606 344.629 104.149 345.142 104.53 345.802C104.911 346.462 105.102 347.232 105.102 348.112C105.102 348.743 105.021 349.308 104.86 349.806C104.713 350.305 104.442 350.818 104.046 351.346C103.665 351.86 103.129 352.476 102.44 353.194L97.8859 357.88L95.2019 357.946ZM95.2019 359.2V357.946L96.9619 357.352H105.454V359.2H95.2019ZM116.85 359.42C115.897 359.42 115.032 359.186 114.254 358.716C113.477 358.232 112.861 357.58 112.406 356.758C111.966 355.937 111.746 355.013 111.746 353.986C111.746 352.96 111.966 352.036 112.406 351.214C112.861 350.393 113.47 349.74 114.232 349.256C115.01 348.772 115.882 348.53 116.85 348.53C117.642 348.53 118.346 348.699 118.962 349.036C119.593 349.359 120.099 349.814 120.48 350.4C120.862 350.972 121.074 351.64 121.118 352.402V355.548C121.074 356.296 120.862 356.964 120.48 357.55C120.114 358.137 119.615 358.599 118.984 358.936C118.368 359.259 117.657 359.42 116.85 359.42ZM117.18 357.55C118.163 357.55 118.955 357.22 119.556 356.56C120.158 355.886 120.458 355.028 120.458 353.986C120.458 353.268 120.319 352.644 120.04 352.116C119.776 351.574 119.395 351.156 118.896 350.862C118.398 350.554 117.818 350.4 117.158 350.4C116.498 350.4 115.912 350.554 115.398 350.862C114.9 351.17 114.504 351.596 114.21 352.138C113.932 352.666 113.792 353.275 113.792 353.964C113.792 354.668 113.932 355.292 114.21 355.834C114.504 356.362 114.907 356.78 115.42 357.088C115.934 357.396 116.52 357.55 117.18 357.55ZM120.326 359.2V356.384L120.7 353.832L120.326 351.302V348.75H122.328V359.2H120.326ZM132.603 359.2V353.106C132.603 352.314 132.354 351.662 131.855 351.148C131.356 350.635 130.711 350.378 129.919 350.378C129.391 350.378 128.922 350.496 128.511 350.73C128.1 350.965 127.778 351.288 127.543 351.698C127.308 352.109 127.191 352.578 127.191 353.106L126.377 352.644C126.377 351.852 126.553 351.148 126.905 350.532C127.257 349.916 127.748 349.432 128.379 349.08C129.01 348.714 129.721 348.53 130.513 348.53C131.305 348.53 132.002 348.728 132.603 349.124C133.219 349.52 133.703 350.041 134.055 350.686C134.407 351.317 134.583 351.992 134.583 352.71V359.2H132.603ZM125.211 359.2V348.75H127.191V359.2H125.211ZM144.656 359.2V353.106C144.656 352.314 144.406 351.662 143.908 351.148C143.409 350.635 142.764 350.378 141.972 350.378C141.444 350.378 140.974 350.496 140.564 350.73C140.153 350.965 139.83 351.288 139.596 351.698C139.361 352.109 139.244 352.578 139.244 353.106L138.43 352.644C138.43 351.852 138.606 351.148 138.958 350.532C139.31 349.916 139.801 349.432 140.432 349.08C141.062 348.714 141.774 348.53 142.566 348.53C143.358 348.53 144.054 348.728 144.656 349.124C145.272 349.52 145.756 350.041 146.108 350.686C146.46 351.317 146.636 351.992 146.636 352.71V359.2H144.656ZM137.264 359.2V348.75H139.244V359.2H137.264ZM153.519 359.42C152.668 359.42 151.898 359.23 151.209 358.848C150.534 358.452 150.006 357.91 149.625 357.22C149.243 356.531 149.053 355.732 149.053 354.822V348.75H151.033V354.734C151.033 355.306 151.128 355.805 151.319 356.23C151.524 356.641 151.817 356.956 152.199 357.176C152.58 357.396 153.027 357.506 153.541 357.506C154.318 357.506 154.927 357.264 155.367 356.78C155.807 356.282 156.027 355.6 156.027 354.734V348.75H158.007V354.822C158.007 355.732 157.816 356.531 157.435 357.22C157.053 357.91 156.525 358.452 155.851 358.848C155.191 359.23 154.413 359.42 153.519 359.42ZM165.104 359.42C164.151 359.42 163.286 359.186 162.508 358.716C161.731 358.232 161.115 357.58 160.66 356.758C160.22 355.937 160 355.013 160 353.986C160 352.96 160.22 352.036 160.66 351.214C161.115 350.393 161.724 349.74 162.486 349.256C163.264 348.772 164.136 348.53 165.104 348.53C165.896 348.53 166.6 348.699 167.216 349.036C167.847 349.359 168.353 349.814 168.734 350.4C169.116 350.972 169.328 351.64 169.372 352.402V355.548C169.328 356.296 169.116 356.964 168.734 357.55C168.368 358.137 167.869 358.599 167.238 358.936C166.622 359.259 165.911 359.42 165.104 359.42ZM165.434 357.55C166.417 357.55 167.209 357.22 167.81 356.56C168.412 355.886 168.712 355.028 168.712 353.986C168.712 353.268 168.573 352.644 168.294 352.116C168.03 351.574 167.649 351.156 167.15 350.862C166.652 350.554 166.072 350.4 165.412 350.4C164.752 350.4 164.166 350.554 163.652 350.862C163.154 351.17 162.758 351.596 162.464 352.138C162.186 352.666 162.046 353.275 162.046 353.964C162.046 354.668 162.186 355.292 162.464 355.834C162.758 356.362 163.161 356.78 163.674 357.088C164.188 357.396 164.774 357.55 165.434 357.55ZM168.58 359.2V356.384L168.954 353.832L168.58 351.302V348.75H170.582V359.2H168.58ZM173.465 359.2V343.492H175.445V359.2H173.465ZM182.918 359.2V348.75H184.898V359.2H182.918ZM184.898 353.238L184.15 352.908C184.15 351.574 184.458 350.51 185.074 349.718C185.69 348.926 186.577 348.53 187.736 348.53C188.264 348.53 188.741 348.626 189.166 348.816C189.591 348.992 189.987 349.293 190.354 349.718L189.056 351.06C188.836 350.826 188.594 350.657 188.33 350.554C188.066 350.452 187.758 350.4 187.406 350.4C186.673 350.4 186.071 350.635 185.602 351.104C185.133 351.574 184.898 352.285 184.898 353.238ZM196.244 359.42C195.203 359.42 194.264 359.186 193.428 358.716C192.592 358.232 191.932 357.58 191.448 356.758C190.964 355.937 190.722 355.006 190.722 353.964C190.722 352.938 190.957 352.014 191.426 351.192C191.91 350.371 192.556 349.726 193.362 349.256C194.184 348.772 195.1 348.53 196.112 348.53C197.08 348.53 197.931 348.75 198.664 349.19C199.412 349.63 199.992 350.239 200.402 351.016C200.828 351.794 201.04 352.674 201.04 353.656C201.04 353.803 201.033 353.964 201.018 354.14C201.004 354.302 200.974 354.492 200.93 354.712H192.108V353.062H199.874L199.148 353.7C199.148 352.996 199.024 352.402 198.774 351.918C198.525 351.42 198.173 351.038 197.718 350.774C197.264 350.496 196.714 350.356 196.068 350.356C195.394 350.356 194.8 350.503 194.286 350.796C193.773 351.09 193.377 351.5 193.098 352.028C192.82 352.556 192.68 353.18 192.68 353.898C192.68 354.632 192.827 355.277 193.12 355.834C193.414 356.377 193.832 356.802 194.374 357.11C194.917 357.404 195.54 357.55 196.244 357.55C196.831 357.55 197.366 357.448 197.85 357.242C198.349 357.037 198.774 356.729 199.126 356.318L200.402 357.616C199.904 358.203 199.288 358.65 198.554 358.958C197.836 359.266 197.066 359.42 196.244 359.42ZM206.613 359.2L201.817 348.75H204.017L207.867 357.572H206.591L210.463 348.75H212.575L207.779 359.2H206.613ZM218.696 359.42C217.654 359.42 216.716 359.186 215.88 358.716C215.044 358.232 214.384 357.58 213.9 356.758C213.416 355.937 213.174 355.006 213.174 353.964C213.174 352.938 213.408 352.014 213.878 351.192C214.362 350.371 215.007 349.726 215.814 349.256C216.635 348.772 217.552 348.53 218.564 348.53C219.532 348.53 220.382 348.75 221.116 349.19C221.864 349.63 222.443 350.239 222.854 351.016C223.279 351.794 223.492 352.674 223.492 353.656C223.492 353.803 223.484 353.964 223.47 354.14C223.455 354.302 223.426 354.492 223.382 354.712H214.56V353.062H222.326L221.6 353.7C221.6 352.996 221.475 352.402 221.226 351.918C220.976 351.42 220.624 351.038 220.17 350.774C219.715 350.496 219.165 350.356 218.52 350.356C217.845 350.356 217.251 350.503 216.738 350.796C216.224 351.09 215.828 351.5 215.55 352.028C215.271 352.556 215.132 353.18 215.132 353.898C215.132 354.632 215.278 355.277 215.572 355.834C215.865 356.377 216.283 356.802 216.826 357.11C217.368 357.404 217.992 357.55 218.696 357.55C219.282 357.55 219.818 357.448 220.302 357.242C220.8 357.037 221.226 356.729 221.578 356.318L222.854 357.616C222.355 358.203 221.739 358.65 221.006 358.958C220.287 359.266 219.517 359.42 218.696 359.42ZM233.043 359.2V353.106C233.043 352.314 232.793 351.662 232.295 351.148C231.796 350.635 231.151 350.378 230.359 350.378C229.831 350.378 229.361 350.496 228.951 350.73C228.54 350.965 228.217 351.288 227.983 351.698C227.748 352.109 227.631 352.578 227.631 353.106L226.817 352.644C226.817 351.852 226.993 351.148 227.345 350.532C227.697 349.916 228.188 349.432 228.819 349.08C229.449 348.714 230.161 348.53 230.953 348.53C231.745 348.53 232.441 348.728 233.043 349.124C233.659 349.52 234.143 350.041 234.495 350.686C234.847 351.317 235.023 351.992 235.023 352.71V359.2H233.043ZM225.651 359.2V348.75H227.631V359.2H225.651ZM241.905 359.42C241.055 359.42 240.285 359.23 239.595 358.848C238.921 358.452 238.393 357.91 238.011 357.22C237.63 356.531 237.439 355.732 237.439 354.822V348.75H239.419V354.734C239.419 355.306 239.515 355.805 239.705 356.23C239.911 356.641 240.204 356.956 240.585 357.176C240.967 357.396 241.414 357.506 241.927 357.506C242.705 357.506 243.313 357.264 243.753 356.78C244.193 356.282 244.413 355.6 244.413 354.734V348.75H246.393V354.822C246.393 355.732 246.203 356.531 245.821 357.22C245.44 357.91 244.912 358.452 244.237 358.848C243.577 359.23 242.8 359.42 241.905 359.42ZM253.887 359.42C252.846 359.42 251.907 359.186 251.071 358.716C250.235 358.232 249.575 357.58 249.091 356.758C248.607 355.937 248.365 355.006 248.365 353.964C248.365 352.938 248.6 352.014 249.069 351.192C249.553 350.371 250.198 349.726 251.005 349.256C251.826 348.772 252.743 348.53 253.755 348.53C254.723 348.53 255.574 348.75 256.307 349.19C257.055 349.63 257.634 350.239 258.045 351.016C258.47 351.794 258.683 352.674 258.683 353.656C258.683 353.803 258.676 353.964 258.661 354.14C258.646 354.302 258.617 354.492 258.573 354.712H249.751V353.062H257.517L256.791 353.7C256.791 352.996 256.666 352.402 256.417 351.918C256.168 351.42 255.816 351.038 255.361 350.774C254.906 350.496 254.356 350.356 253.711 350.356C253.036 350.356 252.442 350.503 251.929 350.796C251.416 351.09 251.02 351.5 250.741 352.028C250.462 352.556 250.323 353.18 250.323 353.898C250.323 354.632 250.47 355.277 250.763 355.834C251.056 356.377 251.474 356.802 252.017 357.11C252.56 357.404 253.183 357.55 253.887 357.55C254.474 357.55 255.009 357.448 255.493 357.242C255.992 357.037 256.417 356.729 256.769 356.318L258.045 357.616C257.546 358.203 256.93 358.65 256.197 358.958C255.478 359.266 254.708 359.42 253.887 359.42ZM270.192 359.42C269.165 359.42 268.241 359.178 267.42 358.694C266.599 358.21 265.946 357.558 265.462 356.736C264.978 355.9 264.736 354.969 264.736 353.942C264.736 352.93 264.978 352.021 265.462 351.214C265.946 350.393 266.599 349.74 267.42 349.256C268.241 348.772 269.165 348.53 270.192 348.53C271.204 348.53 272.121 348.772 272.942 349.256C273.778 349.726 274.438 350.371 274.922 351.192C275.406 352.014 275.648 352.93 275.648 353.942C275.648 354.969 275.406 355.9 274.922 356.736C274.438 357.558 273.778 358.21 272.942 358.694C272.121 359.178 271.204 359.42 270.192 359.42ZM270.192 357.506C270.852 357.506 271.439 357.352 271.952 357.044C272.465 356.736 272.869 356.318 273.162 355.79C273.455 355.248 273.602 354.632 273.602 353.942C273.602 353.268 273.448 352.666 273.14 352.138C272.847 351.61 272.443 351.2 271.93 350.906C271.431 350.598 270.852 350.444 270.192 350.444C269.532 350.444 268.945 350.598 268.432 350.906C267.919 351.2 267.515 351.61 267.222 352.138C266.929 352.666 266.782 353.268 266.782 353.942C266.782 354.632 266.929 355.248 267.222 355.79C267.515 356.318 267.919 356.736 268.432 357.044C268.945 357.352 269.532 357.506 270.192 357.506ZM279.053 359.2V347.188C279.053 346.411 279.221 345.736 279.559 345.164C279.896 344.578 280.358 344.116 280.945 343.778C281.546 343.441 282.243 343.272 283.035 343.272C283.636 343.272 284.157 343.375 284.597 343.58C285.037 343.786 285.44 344.086 285.807 344.482L284.509 345.758C284.318 345.553 284.105 345.399 283.871 345.296C283.636 345.179 283.35 345.12 283.013 345.12C282.382 345.12 281.891 345.304 281.539 345.67C281.201 346.037 281.033 346.543 281.033 347.188V359.2H279.053ZM276.479 350.554V348.75H284.355V350.554H276.479ZM109.189 390.2V375.372H111.169V390.2H109.189ZM106.615 381.554V379.75H113.743V381.554H106.615ZM118.675 390.2L114.539 379.75H116.607L119.599 387.89H118.939L121.909 379.75H123.053L126.023 387.89H125.363L128.355 379.75H130.423L126.309 390.2H125.143L122.129 382.302H122.855L119.819 390.2H118.675ZM136.656 390.42C135.629 390.42 134.705 390.178 133.884 389.694C133.063 389.21 132.41 388.558 131.926 387.736C131.442 386.9 131.2 385.969 131.2 384.942C131.2 383.93 131.442 383.021 131.926 382.214C132.41 381.393 133.063 380.74 133.884 380.256C134.705 379.772 135.629 379.53 136.656 379.53C137.668 379.53 138.585 379.772 139.406 380.256C140.242 380.726 140.902 381.371 141.386 382.192C141.87 383.014 142.112 383.93 142.112 384.942C142.112 385.969 141.87 386.9 141.386 387.736C140.902 388.558 140.242 389.21 139.406 389.694C138.585 390.178 137.668 390.42 136.656 390.42ZM136.656 388.506C137.316 388.506 137.903 388.352 138.416 388.044C138.929 387.736 139.333 387.318 139.626 386.79C139.919 386.248 140.066 385.632 140.066 384.942C140.066 384.268 139.912 383.666 139.604 383.138C139.311 382.61 138.907 382.2 138.394 381.906C137.895 381.598 137.316 381.444 136.656 381.444C135.996 381.444 135.409 381.598 134.896 381.906C134.383 382.2 133.979 382.61 133.686 383.138C133.393 383.666 133.246 384.268 133.246 384.942C133.246 385.632 133.393 386.248 133.686 386.79C133.979 387.318 134.383 387.736 134.896 388.044C135.409 388.352 135.996 388.506 136.656 388.506ZM148.919 390.2V374.492H150.899V390.2H148.919ZM158.57 390.42C157.543 390.42 156.619 390.178 155.798 389.694C154.977 389.21 154.324 388.558 153.84 387.736C153.356 386.9 153.114 385.969 153.114 384.942C153.114 383.93 153.356 383.021 153.84 382.214C154.324 381.393 154.977 380.74 155.798 380.256C156.619 379.772 157.543 379.53 158.57 379.53C159.582 379.53 160.499 379.772 161.32 380.256C162.156 380.726 162.816 381.371 163.3 382.192C163.784 383.014 164.026 383.93 164.026 384.942C164.026 385.969 163.784 386.9 163.3 387.736C162.816 388.558 162.156 389.21 161.32 389.694C160.499 390.178 159.582 390.42 158.57 390.42ZM158.57 388.506C159.23 388.506 159.817 388.352 160.33 388.044C160.843 387.736 161.247 387.318 161.54 386.79C161.833 386.248 161.98 385.632 161.98 384.942C161.98 384.268 161.826 383.666 161.518 383.138C161.225 382.61 160.821 382.2 160.308 381.906C159.809 381.598 159.23 381.444 158.57 381.444C157.91 381.444 157.323 381.598 156.81 381.906C156.297 382.2 155.893 382.61 155.6 383.138C155.307 383.666 155.16 384.268 155.16 384.942C155.16 385.632 155.307 386.248 155.6 386.79C155.893 387.318 156.297 387.736 156.81 388.044C157.323 388.352 157.91 388.506 158.57 388.506ZM171.031 390.42C170.004 390.42 169.073 390.178 168.237 389.694C167.416 389.21 166.763 388.558 166.279 387.736C165.81 386.9 165.575 385.976 165.575 384.964C165.575 383.938 165.81 383.014 166.279 382.192C166.763 381.371 167.416 380.726 168.237 380.256C169.073 379.772 170.004 379.53 171.031 379.53C171.838 379.53 172.586 379.684 173.275 379.992C173.964 380.286 174.558 380.718 175.057 381.29L173.737 382.61C173.414 382.229 173.018 381.943 172.549 381.752C172.094 381.547 171.588 381.444 171.031 381.444C170.371 381.444 169.784 381.598 169.271 381.906C168.758 382.2 168.354 382.61 168.061 383.138C167.768 383.666 167.621 384.275 167.621 384.964C167.621 385.654 167.768 386.262 168.061 386.79C168.354 387.318 168.758 387.736 169.271 388.044C169.784 388.352 170.371 388.506 171.031 388.506C171.588 388.506 172.094 388.411 172.549 388.22C173.018 388.015 173.422 387.722 173.759 387.34L175.057 388.66C174.573 389.218 173.979 389.65 173.275 389.958C172.586 390.266 171.838 390.42 171.031 390.42ZM181.25 390.42C180.296 390.42 179.431 390.186 178.654 389.716C177.876 389.232 177.26 388.58 176.806 387.758C176.366 386.937 176.146 386.013 176.146 384.986C176.146 383.96 176.366 383.036 176.806 382.214C177.26 381.393 177.869 380.74 178.632 380.256C179.409 379.772 180.282 379.53 181.25 379.53C182.042 379.53 182.746 379.699 183.362 380.036C183.992 380.359 184.498 380.814 184.88 381.4C185.261 381.972 185.474 382.64 185.518 383.402V386.548C185.474 387.296 185.261 387.964 184.88 388.55C184.513 389.137 184.014 389.599 183.384 389.936C182.768 390.259 182.056 390.42 181.25 390.42ZM181.58 388.55C182.562 388.55 183.354 388.22 183.956 387.56C184.557 386.886 184.858 386.028 184.858 384.986C184.858 384.268 184.718 383.644 184.44 383.116C184.176 382.574 183.794 382.156 183.296 381.862C182.797 381.554 182.218 381.4 181.558 381.4C180.898 381.4 180.311 381.554 179.798 381.862C179.299 382.17 178.903 382.596 178.61 383.138C178.331 383.666 178.192 384.275 178.192 384.964C178.192 385.668 178.331 386.292 178.61 386.834C178.903 387.362 179.306 387.78 179.82 388.088C180.333 388.396 180.92 388.55 181.58 388.55ZM184.726 390.2V387.384L185.1 384.832L184.726 382.302V379.75H186.728V390.2H184.726ZM191.174 390.2V375.372H193.154V390.2H191.174ZM188.6 381.554V379.75H195.728V381.554H188.6ZM197.689 390.2V379.75H199.669V390.2H197.689ZM198.679 377.66C198.312 377.66 198.012 377.543 197.777 377.308C197.542 377.059 197.425 376.751 197.425 376.384C197.425 376.032 197.542 375.739 197.777 375.504C198.012 375.255 198.312 375.13 198.679 375.13C199.046 375.13 199.346 375.255 199.581 375.504C199.816 375.739 199.933 376.032 199.933 376.384C199.933 376.751 199.816 377.059 199.581 377.308C199.346 377.543 199.046 377.66 198.679 377.66ZM207.361 390.42C206.334 390.42 205.41 390.178 204.589 389.694C203.768 389.21 203.115 388.558 202.631 387.736C202.147 386.9 201.905 385.969 201.905 384.942C201.905 383.93 202.147 383.021 202.631 382.214C203.115 381.393 203.768 380.74 204.589 380.256C205.41 379.772 206.334 379.53 207.361 379.53C208.373 379.53 209.29 379.772 210.111 380.256C210.947 380.726 211.607 381.371 212.091 382.192C212.575 383.014 212.817 383.93 212.817 384.942C212.817 385.969 212.575 386.9 212.091 387.736C211.607 388.558 210.947 389.21 210.111 389.694C209.29 390.178 208.373 390.42 207.361 390.42ZM207.361 388.506C208.021 388.506 208.608 388.352 209.121 388.044C209.634 387.736 210.038 387.318 210.331 386.79C210.624 386.248 210.771 385.632 210.771 384.942C210.771 384.268 210.617 383.666 210.309 383.138C210.016 382.61 209.612 382.2 209.099 381.906C208.6 381.598 208.021 381.444 207.361 381.444C206.701 381.444 206.114 381.598 205.601 381.906C205.088 382.2 204.684 382.61 204.391 383.138C204.098 383.666 203.951 384.268 203.951 384.942C203.951 385.632 204.098 386.248 204.391 386.79C204.684 387.318 205.088 387.736 205.601 388.044C206.114 388.352 206.701 388.506 207.361 388.506ZM222.44 390.2V384.106C222.44 383.314 222.191 382.662 221.692 382.148C221.193 381.635 220.548 381.378 219.756 381.378C219.228 381.378 218.759 381.496 218.348 381.73C217.937 381.965 217.615 382.288 217.38 382.698C217.145 383.109 217.028 383.578 217.028 384.106L216.214 383.644C216.214 382.852 216.39 382.148 216.742 381.532C217.094 380.916 217.585 380.432 218.216 380.08C218.847 379.714 219.558 379.53 220.35 379.53C221.142 379.53 221.839 379.728 222.44 380.124C223.056 380.52 223.54 381.041 223.892 381.686C224.244 382.317 224.42 382.992 224.42 383.71V390.2H222.44ZM215.048 390.2V379.75H217.028V390.2H215.048ZM230.423 390.42C229.836 390.42 229.279 390.347 228.751 390.2C228.237 390.039 227.761 389.819 227.321 389.54C226.881 389.247 226.499 388.902 226.177 388.506L227.453 387.23C227.834 387.7 228.274 388.052 228.773 388.286C229.271 388.506 229.829 388.616 230.445 388.616C231.061 388.616 231.537 388.514 231.875 388.308C232.212 388.088 232.381 387.788 232.381 387.406C232.381 387.025 232.241 386.732 231.963 386.526C231.699 386.306 231.354 386.13 230.929 385.998C230.503 385.852 230.049 385.712 229.565 385.58C229.095 385.434 228.648 385.25 228.223 385.03C227.797 384.81 227.445 384.51 227.167 384.128C226.903 383.747 226.771 383.241 226.771 382.61C226.771 381.98 226.925 381.437 227.233 380.982C227.541 380.513 227.966 380.154 228.509 379.904C229.066 379.655 229.733 379.53 230.511 379.53C231.332 379.53 232.058 379.677 232.689 379.97C233.334 380.249 233.862 380.674 234.273 381.246L232.997 382.522C232.703 382.141 232.337 381.848 231.897 381.642C231.471 381.437 230.987 381.334 230.445 381.334C229.873 381.334 229.433 381.437 229.125 381.642C228.831 381.833 228.685 382.104 228.685 382.456C228.685 382.808 228.817 383.08 229.081 383.27C229.345 383.461 229.689 383.622 230.115 383.754C230.555 383.886 231.009 384.026 231.479 384.172C231.948 384.304 232.395 384.488 232.821 384.722C233.246 384.957 233.591 385.272 233.855 385.668C234.133 386.064 234.273 386.585 234.273 387.23C234.273 388.213 233.921 388.99 233.217 389.562C232.527 390.134 231.596 390.42 230.423 390.42Z" fill="white"/>
</svg>
